<svg width="64" height="64" viewBox="0 0 64 64" fill="none" xmlns="http://www.w3.org/2000/svg">
<path d="M29.6347 30.5234C29.1953 30.5234 29.0167 31.0728 28.8657 31.7182C28.8107 31.938 28.7695 32.1577 28.7695 32.35C28.7695 32.762 29.0579 32.762 29.0991 32.762C29.2639 32.762 29.4013 32.6659 29.5249 32.4873C29.7034 32.2538 29.827 31.7182 29.8545 31.5809C30.0055 30.9354 29.9781 30.5234 29.6347 30.5234Z" fill="white"/>
<path d="M40.1812 27.9555C40.1537 27.9555 39.2061 27.8731 39.2061 27.8731L39.0276 27.8594L39.0139 27.9418L39.0001 28.0379L38.5469 30.043L38.5332 30.1391H38.7804C39.1649 30.1391 39.5357 30.1254 39.8516 29.9743C40.2224 29.7958 40.5108 29.425 40.607 28.9718C40.7031 28.4774 40.552 28.0928 40.1812 27.9555Z" fill="white"/>
<path d="M43.6446 30.606C43.2052 30.606 43.0266 31.1553 42.8756 31.787C42.8344 32.0205 42.7794 32.2265 42.7932 32.4188C42.8069 32.817 43.0678 32.817 43.1228 32.817C43.2876 32.817 43.5485 32.7209 43.6721 32.5561C43.7408 32.4737 43.7957 32.3501 43.8369 32.2265C43.8781 32.0342 43.933 31.8557 43.9742 31.6634C44.0017 31.5398 44.0292 31.4162 44.0566 31.3064C44.0704 30.8669 43.933 30.606 43.6446 30.606Z" fill="white"/>
<path d="M51.1965 18.6582H40.5531C39.0562 18.6582 37.5729 19.8667 37.2296 21.3637L35.5953 28.2991C35.3481 28.2441 35.1421 28.2304 34.9499 28.2167C34.9361 28.2167 34.9224 28.2167 34.9087 28.2167L36.5429 21.1989C36.7627 20.2787 37.2983 19.4959 38.0124 18.9191C38.136 18.823 38.2596 18.7406 38.3832 18.6582H28.7698C27.2729 18.6582 25.7897 19.8667 25.4326 21.3637L23.8395 28.2304H23.8258C23.5786 28.148 23.3314 28.1617 23.1528 28.2167L24.7871 21.2126C25.0069 20.2925 25.5562 19.5097 26.2566 18.9329C26.3802 18.8367 26.5038 18.7543 26.6274 18.6719H19.0191C17.5221 18.6719 16.0389 19.8805 15.6956 21.3774L10.7378 42.6505C10.3945 44.1337 11.3146 45.3423 12.8116 45.3423H20.6808C20.6396 45.3011 20.5984 45.2736 20.5572 45.2324C20.0491 44.7243 19.7607 44.0239 19.7607 43.2685C19.7607 43.0213 19.7881 42.7604 19.8568 42.4994L21.601 35.0147H22.3014L20.516 42.6505C20.159 44.1337 21.0928 45.3423 22.576 45.3423H32.4366C32.3954 45.3011 32.3542 45.2736 32.313 45.2324C31.8049 44.7243 31.5165 44.0239 31.5165 43.2685C31.5165 43.0213 31.544 42.7604 31.6126 42.4994L33.343 35.0559H34.0435L32.2718 42.6505C31.9285 44.1337 32.8486 45.3423 34.3319 45.3423H44.9753C46.4585 45.3423 47.9554 44.1337 48.2988 42.6505L53.2565 21.3774C53.6136 19.8667 52.6797 18.6582 51.1965 18.6582ZM19.898 31.1282C19.7057 31.8286 19.4723 32.6251 18.6071 33.1332C18.1127 33.4354 17.3711 33.6002 16.5883 33.6002C15.984 33.6002 14.899 33.504 14.5282 32.8448C14.4046 32.6388 14.3497 32.3916 14.3497 32.0895L14.487 31.0732L14.5557 30.7574L15.3797 27.1043C15.3797 27.1043 15.4209 26.8983 15.4347 26.8708C15.4484 26.8983 15.7368 26.912 17.3161 26.8983C17.3161 26.912 17.3024 26.912 17.3024 26.9395C17.1513 27.3652 16.3548 30.6063 16.3548 30.6063L16.2037 31.5814V31.7462C16.2587 32.2268 16.5471 32.474 17.0552 32.474C17.3711 32.474 17.6457 32.3779 17.8792 32.1856C18.2912 31.856 18.4148 31.3479 18.5796 30.62C18.5796 30.62 19.3487 27.0631 19.4036 26.8708C19.5135 26.8983 19.8431 26.912 20.9967 26.8983C20.983 26.912 20.983 26.912 20.983 26.9395C20.8319 27.3789 20.0079 30.7436 20.0079 30.7436L19.898 31.1282ZM24.485 31.5402L24.3888 31.9384C24.2103 32.7899 24.1828 32.941 24.073 33.5315L24.0043 33.5864C23.4412 33.5864 23.249 33.5864 22.5898 33.6139L22.5623 33.5727C22.6172 33.3255 22.6859 33.0783 22.7408 32.8174L22.8232 32.474C22.9468 31.9384 23.0704 31.3342 23.0842 31.1419C23.0979 31.032 23.1391 30.7436 22.8095 30.7436C22.6722 30.7436 22.5348 30.8123 22.3838 30.8672C22.3014 31.1556 22.1503 31.9384 22.0679 32.3092C21.9031 33.0646 21.8894 33.1607 21.8207 33.5315L21.7658 33.5864C21.189 33.5864 20.9967 33.5864 20.3238 33.6139L20.2963 33.559C20.4062 33.1058 20.516 32.6526 20.6259 32.2131C20.9143 30.9908 20.9692 30.5239 21.0516 29.8922L21.1066 29.851C21.752 29.7686 21.9031 29.7411 22.6035 29.59L22.6584 29.6587L22.5486 30.057C22.6722 29.9883 22.782 29.9196 22.9056 29.851C23.2352 29.6861 23.606 29.6449 23.812 29.6449C24.1142 29.6449 24.4575 29.7274 24.5948 30.0844C24.7459 30.3728 24.6498 30.7711 24.485 31.5402ZM26.8334 31.293C26.7785 31.5676 26.7098 31.8286 26.6411 32.0895C26.5175 32.6526 26.4626 32.8586 26.4351 33.0096C26.4077 33.1607 26.3939 33.2294 26.3527 33.5178L26.3253 33.5452L26.2978 33.559C25.9545 33.559 25.7485 33.559 25.5287 33.559C25.309 33.559 25.1167 33.5727 24.8009 33.5864L24.7871 33.559L24.7734 33.5315C24.8558 33.2156 24.897 33.092 24.9382 32.9822C24.9794 32.8723 25.0206 32.7487 25.103 32.4191C25.1991 31.9934 25.2541 31.6912 25.309 31.4303C25.3502 31.1694 25.3777 30.9634 25.4189 30.7024L25.4463 30.6887L25.4738 30.6612C25.8171 30.62 26.0231 30.5788 26.2429 30.5514C26.4626 30.5102 26.6823 30.469 27.0257 30.414L27.0394 30.4415L27.0531 30.469C26.957 30.7436 26.8883 31.0183 26.8334 31.293ZM26.9021 30.1394C26.5313 30.4003 25.9819 30.4552 25.6661 30.263C25.3502 30.0707 25.3914 29.7274 25.7759 29.4664C26.1467 29.2055 26.6961 29.1505 27.0119 29.3428C27.3141 29.5214 27.2729 29.8784 26.9021 30.1394ZM31.3105 31.65C31.2556 31.911 31.077 32.5427 30.6925 32.9684C30.1981 33.4903 29.5526 33.6688 28.9071 33.6688C28.6599 33.6688 28.2754 33.6414 28.0007 33.5178C27.1218 33.1607 27.2729 32.2131 27.3827 31.6912C27.5063 31.1831 27.6986 30.6338 28.1243 30.2492C28.7286 29.6999 29.4839 29.6587 29.8136 29.6587C30.3492 29.6587 30.8573 29.7823 31.1594 30.1531C31.3654 30.3866 31.5165 30.7848 31.3105 31.65ZM35.6091 31.5402L35.5267 31.9384C35.3481 32.7899 35.3207 32.941 35.2245 33.5315L35.1559 33.5864C34.5928 33.5864 34.4005 33.5864 33.7413 33.6139L33.7139 33.5727C33.7688 33.3255 33.8374 33.0783 33.8924 32.8174L33.9748 32.474C34.0984 31.9384 34.2083 31.3342 34.222 31.1419C34.2357 31.032 34.2632 30.7436 33.9473 30.7436C33.81 30.7436 33.6589 30.8123 33.5216 30.8672C33.4392 31.1556 33.2881 31.9384 33.2057 32.3092C33.0546 33.0646 33.0409 33.1607 32.9722 33.5315L32.9173 33.5864C32.3405 33.5864 32.1482 33.5864 31.489 33.6139L31.4616 33.559C31.5714 33.1058 31.6813 32.6526 31.7912 32.2131C32.0658 30.9908 32.1345 30.5239 32.2169 29.8922L32.2718 29.851C32.9173 29.7686 33.0684 29.7411 33.7825 29.59L33.8375 29.6587L33.7276 30.057C33.8374 29.9883 33.961 29.9196 34.0847 29.851C34.4143 29.6861 34.7851 29.6449 34.9911 29.6449C35.2932 29.6449 35.6365 29.7274 35.7739 30.0844C35.87 30.3728 35.7876 30.7711 35.6091 31.5402ZM38.4793 31.1694H38.3832C38.3146 31.2106 38.2459 31.293 38.2459 31.293C38.2321 31.3204 38.0261 32.1994 38.0261 32.1994C38.0261 32.1994 37.7789 33.3942 37.7377 33.6002C37.5592 33.5864 37.1197 33.5864 36.076 33.5864C36.1309 33.3942 37.1609 29.1231 37.1609 29.1231L37.5867 27.118C37.5867 27.118 37.6279 26.9669 37.6416 26.8708C37.8476 26.8983 38.3283 26.8983 39.5368 26.8845H40.0038C40.9514 26.8845 41.7616 26.8983 42.1874 27.4751C42.3522 27.6948 42.4071 27.9695 42.4071 28.2441C42.4071 28.4501 42.3796 28.6699 42.3247 28.8484C42.1599 29.5763 41.7754 30.1806 41.2398 30.5926C40.4158 31.1694 39.3858 31.1694 38.4793 31.1694ZM43.5058 33.6414L43.4646 33.6002C43.4921 33.5178 43.5058 33.4491 43.5333 33.3667C43.2998 33.559 43.0526 33.6963 42.7916 33.71C42.5444 33.7238 42.2972 33.6826 42.0226 33.5727C41.1436 33.2294 41.2947 32.2818 41.4046 31.7599C41.5282 31.2518 41.7342 30.7162 42.1462 30.3179C42.7504 29.7686 43.4509 29.6175 43.7393 29.7274C43.9727 29.8235 44.1238 29.9608 44.2337 30.1256C44.2474 30.0707 44.2474 30.0295 44.2474 29.9746L44.3023 29.9334C44.9753 29.8372 45.1538 29.8098 45.8542 29.6724L45.8817 29.7274C45.7581 30.2492 45.6207 30.7848 45.4971 31.3067C45.2362 32.4191 45.1401 32.9822 45.0439 33.559L44.9753 33.6002C44.3298 33.6276 44.1375 33.6276 43.5058 33.6414ZM47.3923 35.2345L47.3374 35.3031H47.3511L46.8018 36.237C46.6233 36.5529 46.3074 36.7863 45.7993 36.8001L44.9341 36.7863L45.1813 35.9486H45.3461C45.4285 35.9486 45.4971 35.9349 45.5521 35.9074C45.5933 35.8937 45.6345 35.8662 45.6619 35.8113L45.9641 35.3306C46.3898 34.6714 46.4997 34.3967 46.9529 33.6551C46.8705 32.8174 46.8293 32.5564 46.7743 32.0071C46.7331 31.6775 46.6782 31.3479 46.637 31.0183C46.5546 30.3454 46.5683 30.4415 46.4997 30.0158V30.002C46.4997 29.9746 46.4997 29.9608 46.5134 29.9334L46.5683 29.8922C47.2413 29.8098 47.255 29.7823 47.9829 29.6449L48.0378 29.6999L48.134 31.5539C48.134 31.5951 48.134 31.6226 48.134 31.6638C48.5185 30.7986 48.5048 31.0458 48.9717 29.9471V29.9608C48.9717 29.9471 48.9717 29.9334 48.9854 29.9334L49.0266 29.8922C49.6584 29.8098 49.782 29.7823 50.4824 29.6449L50.5373 29.6999C50.5373 29.6724 47.7494 34.4379 47.3923 35.2345Z" fill="white"/>
</svg>
