<svg width="62" height="24" viewBox="0 0 62 24" fill="none" xmlns="http://www.w3.org/2000/svg">
<g clip-path="url(#clip0_955_2997)">
<path fill-rule="evenodd" clip-rule="evenodd" d="M12.5872 24.0002C19.2345 24.0002 24.6221 18.6312 24.6221 12.0072C24.6221 5.37074 19.2345 0.00175184 12.5872 0.000976646C5.93992 0.000201453 0.550781 5.36997 0.550781 12.0064C0.550781 18.6297 5.94535 24.0002 12.5872 24.0002ZM12.5872 4.11183C13.0562 4.11183 13.5174 4.13043 13.9686 4.17152V10.5738H11.2105V4.17074C11.6601 4.12966 12.1229 4.11105 12.5857 4.11105L12.5872 4.11183ZM17.267 7.12966C18.3086 7.31619 19.3359 7.57522 20.3415 7.90485V12.5374C20.3415 16.7909 16.8694 20.2661 12.5895 20.2661C8.30969 20.2661 4.84302 16.7909 4.84302 12.5374V7.90175C5.84872 7.57275 6.87598 7.31373 7.91744 7.12656V12.5025C7.91744 16.3731 9.56938 18.4064 12.5895 18.4064C15.6213 18.4064 17.2678 16.3731 17.2678 12.5025L17.267 7.12966ZM56.9042 6.04439C57.3073 5.3816 58.1151 4.94361 59.1933 4.94361C61.012 4.94361 61.8902 6.09788 61.8941 7.52501V10.9529H60.1941V7.76144C60.1941 7.08082 59.8065 6.47927 58.9895 6.47927C58.1724 6.47927 57.7647 7.05757 57.7647 7.73664V10.9498H56.0685V7.73664C56.0685 7.05757 55.6399 6.47927 54.8151 6.47927C53.9903 6.47927 53.6344 7.0816 53.6344 7.76144V10.9498H51.936V7.52036C51.936 6.09478 52.8662 4.94051 54.6817 4.94051C55.6089 4.94051 56.4926 5.37849 56.9027 6.04129L56.9042 6.04439ZM43.198 6.49012V5.05369H37.6872V6.48702H40.9507L37.5546 9.51881V10.9514H43.4027V9.51881H39.8058L43.198 6.49012ZM48.943 8.14439C48.943 9.08315 48.4127 9.5157 47.6298 9.5157C46.8469 9.5157 46.3298 9.08315 46.3298 8.14439V5.05369H44.629V8.20098C44.629 10.2537 46.3391 11.0591 47.6337 11.0591C48.9112 11.0591 50.6383 10.2537 50.6383 8.20098V5.05369H48.9399V8.14129L48.943 8.14439ZM34.7422 8.14439C34.7422 9.08315 34.212 9.5157 33.429 9.5157C32.6461 9.5157 32.129 9.08315 32.129 8.14439V5.05369H30.4283V8.20098C30.4283 10.2537 32.1383 11.0591 33.4329 11.0591C34.7104 11.0591 36.4376 10.2537 36.4376 8.20098V5.05369H34.7414V8.14129L34.7422 8.14439ZM33.3019 19.8731C33.6097 19.9895 33.9373 20.0446 34.2662 20.0351C34.6367 20.0355 35.0043 19.9696 35.3515 19.8405C35.6881 19.7147 35.9952 19.521 36.2538 19.2715C36.5199 19.0111 36.729 18.6983 36.8678 18.3529C37.1716 17.5499 37.1716 16.6636 36.8678 15.8607C36.729 15.5153 36.5199 15.2025 36.2538 14.9421C35.9957 14.6931 35.6894 14.4995 35.3538 14.3731C34.7001 14.1346 33.9875 14.1102 33.319 14.3033C33.0934 14.374 32.8774 14.4718 32.6755 14.5948C32.4911 14.7041 32.3252 14.8419 32.1841 15.0033H32.1143V11.8467H30.4314V20.0227H32.1143V19.0041H32.1918C32.3132 19.2031 32.471 19.3775 32.6569 19.518C32.8549 19.6634 33.0712 19.7817 33.3004 19.87L33.3019 19.8731ZM34.9383 18.1312C34.6541 18.403 34.2544 18.5395 33.7391 18.5405C33.2239 18.5415 32.8246 18.4051 32.5414 18.1312C32.4013 17.9995 32.2906 17.8396 32.2167 17.662C32.1428 17.4845 32.1074 17.2932 32.1128 17.101C32.1057 16.9056 32.142 16.7111 32.2189 16.5314C32.2958 16.3517 32.4115 16.1912 32.5577 16.0614C32.8538 15.7963 33.2471 15.6638 33.7376 15.6638C34.2544 15.6638 34.6541 15.8002 34.9368 16.0731C35.0722 16.2078 35.1796 16.368 35.2529 16.5444C35.3262 16.7208 35.3639 16.91 35.3639 17.101C35.3639 17.292 35.3262 17.4811 35.2529 17.6575C35.1796 17.8339 35.0722 17.9941 34.9368 18.1289L34.9383 18.1312ZM46.3655 14.1839H48.0499V15.232H48.1437C48.249 15.0285 48.3965 14.8499 48.5763 14.708C48.7707 14.557 48.9855 14.4343 49.2143 14.3436C49.4841 14.2297 49.8282 14.1723 50.2499 14.1723C50.5761 14.1683 50.9008 14.2149 51.2127 14.3103C51.504 14.4013 51.7715 14.5559 51.9957 14.763C52.2265 14.9829 52.4046 15.2521 52.5166 15.5506C52.6489 15.9099 52.7123 16.291 52.7034 16.6738V20.025H51.0205V17.1459C51.0205 16.6444 50.8833 16.2715 50.612 16.0281C50.3406 15.7847 49.9794 15.663 49.5352 15.663C49.0438 15.663 48.6735 15.8018 48.4244 16.0793C48.1753 16.3568 48.0505 16.7123 48.0499 17.1459V20.0196H46.3639L46.3655 14.1839ZM55.791 11.8452H54.1065V20.0211H55.791V17.1599L58.4112 20.0211H60.4003L57.6871 17.0188L60.1895 14.1808H58.2112L55.791 16.9134V11.8452ZM44.7189 17.9901V14.0312H42.9771L42.9903 14.994C42.6112 14.4289 41.9445 13.9134 40.7624 13.9134C38.729 13.9134 37.6841 15.4924 37.6841 17.0762C37.6469 18.6793 38.829 20.2762 40.6755 20.2762C41.6531 20.2762 42.5484 19.8413 42.9771 19.0769C43.1507 19.5808 43.5864 20.1335 44.4949 20.1335H45.5027V18.6514H45.222C44.8686 18.6514 44.7189 18.5242 44.7189 17.9901ZM41.1298 18.7475C40.129 18.7475 39.3825 18.0583 39.3825 17.0886C39.3825 16.132 40.129 15.4537 41.1298 15.4537C42.1624 15.4537 42.9127 16.132 42.9127 17.0886C42.9127 18.0452 42.1624 18.7475 41.1298 18.7475Z" fill="white"/>
</g>
<defs>
<clipPath id="clip0_955_2997">
<rect width="61.3418" height="24" fill="white" transform="translate(0.548828)"/>
</clipPath>
</defs>
</svg>
