<svg width="142" height="34" viewBox="0 0 142 34" fill="none" xmlns="http://www.w3.org/2000/svg">
<path d="M20.0545 6.13844L16.8362 15.4224L13.6179 6.13844C13.0617 5.06916 13.2644 3.7636 14.118 2.91192L16.8362 0.199707L19.5544 2.91192C20.408 3.7636 20.6107 5.06916 20.0545 6.13844Z" fill="white"/>
<path d="M13.6179 27.8611L16.8362 18.5771L20.0545 27.8611C20.6107 28.9304 20.408 30.2359 19.5544 31.0876L16.8362 33.7998L14.118 31.0876C13.2644 30.2359 13.0617 28.9304 13.6179 27.8611Z" fill="white"/>
<path d="M5.95193 13.7872L15.2565 16.9983L5.95193 20.2094C4.88027 20.7644 3.57182 20.5622 2.71824 19.7105L0 16.9983L2.71824 14.2861C3.57182 13.4344 4.88027 13.2322 5.95193 13.7872Z" fill="white"/>
<path d="M27.7225 20.2094L18.418 16.9983L27.7225 13.7872C28.7942 13.2322 30.1026 13.4344 30.9562 14.2861L33.6745 16.9983L30.9562 19.7105C30.1026 20.5622 28.7942 20.7644 27.7225 20.2094Z" fill="white"/>
<path d="M11.4166 7.04865L15.7198 15.8842L6.86459 11.5906C5.71363 11.2269 4.93164 10.1609 4.93164 8.95643V5.12109H8.7755C9.98263 5.12109 11.051 5.90135 11.4155 7.04975L11.4166 7.04865Z" fill="white"/>
<path d="M22.2582 26.9503L17.9551 18.1147L26.8103 22.4083C27.9612 22.7721 28.7432 23.8381 28.7432 25.0425V28.8779H24.8994C23.6922 28.8779 22.6239 28.0976 22.2593 26.9492L22.2582 26.9503Z" fill="white"/>
<path d="M6.86349 22.4083L15.7187 18.1147L11.4155 26.9503C11.051 28.0987 9.98263 28.879 8.7755 28.879H4.93164V25.0436C4.93164 23.8392 5.71363 22.7732 6.86459 22.4094L6.86349 22.4083Z" fill="white"/>
<path d="M26.8103 11.5898L17.9551 15.8834L22.2582 7.0478C22.6228 5.8994 23.6911 5.11914 24.8983 5.11914H28.7421V8.95448C28.7421 10.1589 27.9601 11.2249 26.8092 11.5887L26.8103 11.5898Z" fill="white"/>
<path d="M20.0545 6.13844L16.8362 12.3321L13.6179 6.13844C13.0617 5.06916 13.2644 3.7636 14.118 2.91192L16.8362 0.199707L19.5544 2.91192C20.408 3.7636 20.6107 5.06916 20.0545 6.13844Z" fill="white"/>
<path d="M13.6179 27.8617L16.8362 21.668L20.0545 27.8617C20.6107 28.9309 20.408 30.2365 19.5544 31.0882L16.8362 33.8004L14.118 31.0882C13.2644 30.2365 13.0617 28.9309 13.6179 27.8617Z" fill="white"/>
<path d="M5.95193 13.7872L12.1594 16.9983L5.95193 20.2094C4.88027 20.7644 3.57182 20.5622 2.71824 19.7105L0 16.9983L2.71824 14.2861C3.57182 13.4344 4.88027 13.2322 5.95193 13.7872Z" fill="white"/>
<path d="M27.7211 20.2094L21.5137 16.9983L27.7211 13.7872C28.7928 13.2322 30.1012 13.4344 30.9548 14.2861L33.6731 16.9983L30.9548 19.7105C30.1012 20.5622 28.7928 20.7644 27.7211 20.2094Z" fill="white"/>
<path d="M11.4166 7.04865L13.5302 13.6995L6.86459 11.5906C5.71363 11.2269 4.93164 10.1609 4.93164 8.95643V5.12109H8.7755C9.98263 5.12109 11.051 5.90135 11.4155 7.04975L11.4166 7.04865Z" fill="white"/>
<path d="M22.2581 26.9507L20.1445 20.2998L26.8102 22.4087C27.9611 22.7724 28.7431 23.8384 28.7431 25.0429V28.8782H24.8992C23.6921 28.8782 22.6238 28.098 22.2592 26.9496L22.2581 26.9507Z" fill="white"/>
<path d="M6.86349 22.4087L13.5291 20.2998L11.4155 26.9507C11.051 28.0991 9.98263 28.8793 8.7755 28.8793H4.93164V25.044C4.93164 23.8395 5.71363 22.7735 6.86459 22.4098L6.86349 22.4087Z" fill="white"/>
<path d="M26.8102 11.5898L20.1445 13.6986L22.2581 7.0478C22.6227 5.8994 23.691 5.11914 24.8981 5.11914H28.742V8.95448C28.742 10.1589 27.96 11.2249 26.8091 11.5887L26.8102 11.5898Z" fill="white"/>
<path d="M42.6469 14.0975C43.0291 13.3118 43.5501 12.7062 44.2109 12.2831C44.8718 11.86 45.6075 11.6479 46.4203 11.6479C47.123 11.6479 47.7299 11.7875 48.2387 12.0656C48.7476 12.3436 49.1419 12.7183 49.4205 13.1909V11.7754H52.9846V21.9528H49.4205V20.5374C49.1419 21.0088 48.7443 21.3836 48.2299 21.6627C47.7145 21.9407 47.112 22.0803 46.4203 22.0803C45.6086 22.0803 44.8718 21.8693 44.2109 21.4451C43.5501 21.022 43.0291 20.4143 42.6469 19.6219C42.2648 18.8296 42.0742 17.9076 42.0742 16.8548C42.0742 15.802 42.2648 14.8833 42.6469 14.0975ZM48.8841 15.3129C48.5262 14.9382 48.0867 14.7503 47.5658 14.7503C47.0448 14.7503 46.5899 14.9349 46.2386 15.3042C45.8872 15.6734 45.711 16.1899 45.711 16.8559C45.711 17.5218 45.8861 18.0263 46.2386 18.4076C46.5899 18.7889 47.0327 18.9791 47.5658 18.9791C48.0988 18.9791 48.5262 18.7911 48.8841 18.4164C49.2421 18.0416 49.4205 17.5218 49.4205 16.8559C49.4205 16.1899 49.2421 15.6888 48.8841 15.314V15.3129Z" fill="white"/>
<path d="M60.5932 12.0659C61.1086 12.344 61.5051 12.7187 61.7838 13.1912V11.7758H65.3479V21.8444C65.3479 22.7994 65.1662 23.6609 64.8027 24.4302C64.4393 25.1984 63.872 25.8116 63.1022 26.2721C62.3323 26.7314 61.3598 26.9611 60.1835 26.9611C58.6074 26.9611 57.3474 26.5919 56.4013 25.8545C55.4563 25.1171 54.9166 24.1126 54.7833 22.8433H58.2924C58.3651 23.1697 58.5468 23.4236 58.8376 23.6049C59.1283 23.7862 59.5039 23.8774 59.9654 23.8774C61.1769 23.8774 61.7838 23.2005 61.7838 21.8455V20.5388C61.5051 21.0103 61.1075 21.385 60.5932 21.6642C60.0777 21.9422 59.4753 22.0818 58.7836 22.0818C57.9719 22.0818 57.235 21.8708 56.5742 21.4466C55.9134 21.0235 55.3924 20.4157 55.0102 19.6234C54.628 18.8311 54.4375 17.909 54.4375 16.8562C54.4375 15.8034 54.628 14.8847 55.0102 14.099C55.3924 13.3132 55.9134 12.7077 56.5742 12.2846C57.235 11.8615 57.9708 11.6494 58.7836 11.6494C59.4742 11.6494 60.0777 11.789 60.5932 12.067V12.0659ZM61.2474 15.3133C60.8895 14.9386 60.45 14.7507 59.929 14.7507C59.4081 14.7507 58.9532 14.9353 58.6019 15.3045C58.2505 15.6738 58.0743 16.1903 58.0743 16.8562C58.0743 17.5222 58.2494 18.0266 58.6019 18.408C58.9532 18.7893 59.396 18.9794 59.929 18.9794C60.4621 18.9794 60.8895 18.7915 61.2474 18.4168C61.6054 18.042 61.7838 17.5222 61.7838 16.8562C61.7838 16.1903 61.6054 15.6892 61.2474 15.3144V15.3133Z" fill="white"/>
<path d="M67.3755 14.0975C67.7576 13.3118 68.2786 12.7062 68.9394 12.2831C69.6003 11.86 70.336 11.6479 71.1488 11.6479C71.8515 11.6479 72.4584 11.7875 72.9672 12.0656C73.4761 12.3436 73.8704 12.7183 74.149 13.1909V11.7754H77.7131V21.9528H74.149V20.5374C73.8704 21.0088 73.4728 21.3836 72.9584 21.6627C72.443 21.9407 71.8405 22.0803 71.1488 22.0803C70.3371 22.0803 69.6003 21.8693 68.9394 21.4451C68.2786 21.022 67.7576 20.4143 67.3755 19.6219C66.9933 18.8296 66.8027 17.9076 66.8027 16.8548C66.8027 15.802 66.9933 14.8833 67.3755 14.0975ZM73.6127 15.3129C73.2547 14.9382 72.8152 14.7503 72.2943 14.7503C71.7733 14.7503 71.3184 14.9349 70.9671 15.3042C70.6158 15.6734 70.4395 16.1899 70.4395 16.8559C70.4395 17.5218 70.6147 18.0263 70.9671 18.4076C71.3184 18.7889 71.7612 18.9791 72.2943 18.9791C72.8274 18.9791 73.2547 18.7911 73.6127 18.4164C73.9706 18.0416 74.149 17.5218 74.149 16.8559C74.149 16.1899 73.9706 15.6888 73.6127 15.314V15.3129Z" fill="white"/>
<path d="M85.7652 18.9223V21.9521H84.22C81.6141 21.9521 80.3111 20.6642 80.3111 18.0882V14.732H79.0566V11.7748H80.3111V9.30762H83.8929V11.7748H85.7476V14.732H83.8929V18.1432C83.8929 18.4212 83.9567 18.6212 84.0834 18.7421C84.2112 18.863 84.4259 18.9234 84.7288 18.9234H85.7652V18.9223Z" fill="white"/>
<path d="M91.7301 14.3064C92.142 13.5382 92.7114 12.9459 93.4394 12.5283C94.1663 12.1107 94.9968 11.9019 95.9308 11.9019C97.1544 11.9019 98.1644 12.2041 98.9585 12.8085C99.7526 13.4129 100.265 14.236 100.495 15.2756H99.1314C98.9618 14.5624 98.595 14.003 98.0311 13.5975C97.4672 13.192 96.7678 12.9898 95.9308 12.9898C95.2644 12.9898 94.6642 13.1415 94.1311 13.4437C93.598 13.7459 93.1762 14.1965 92.8678 14.7954C92.5583 15.3943 92.4041 16.1284 92.4041 16.9999C92.4041 17.8714 92.5583 18.6088 92.8678 19.2132C93.1773 19.8176 93.598 20.2715 94.1311 20.5737C94.6642 20.8759 95.2644 21.0275 95.9308 21.0275C96.7667 21.0275 97.4672 20.8253 98.0311 20.4198C98.595 20.0143 98.9618 19.4494 99.1314 18.723H100.495C100.265 19.7385 99.7493 20.555 98.9497 21.1726C98.1501 21.7891 97.1434 22.0979 95.9319 22.0979C94.9979 22.0979 94.1685 21.8891 93.4405 21.4715C92.7136 21.0539 92.1431 20.4616 91.7312 19.6934C91.3192 18.9253 91.1133 18.0274 91.1133 16.9988C91.1133 15.9702 91.3192 15.0723 91.7312 14.3042L91.7301 14.3064Z" fill="white"/>
<path d="M105.395 12.373C105.971 12.0345 106.677 11.8652 107.513 11.8652V13.1895H107.167C106.245 13.1895 105.506 13.4378 104.949 13.9335C104.392 14.4291 104.113 15.2577 104.113 16.4193V21.9525H102.84V12.0466H104.113V13.806C104.392 13.1895 104.819 12.7114 105.395 12.373Z" fill="white"/>
<path d="M118.368 17.4911H110.132C110.168 18.2417 110.35 18.8824 110.677 19.4143C111.004 19.9462 111.435 20.3484 111.968 20.6209C112.501 20.8935 113.082 21.0286 113.714 21.0286C114.537 21.0286 115.231 20.8286 115.795 20.4297C116.359 20.0308 116.731 19.4923 116.913 18.8154H118.259C118.017 19.7835 117.498 20.5726 116.705 21.1825C115.911 21.7935 114.914 22.099 113.714 22.099C112.78 22.099 111.944 21.8902 111.205 21.4726C110.466 21.055 109.886 20.4627 109.468 19.6945C109.049 18.9263 108.84 18.0285 108.84 16.9999C108.84 15.9713 109.046 15.0712 109.458 14.2965C109.87 13.5228 110.446 12.9294 111.185 12.5184C111.924 12.1074 112.766 11.9019 113.712 11.9019C114.659 11.9019 115.486 12.1074 116.194 12.5184C116.903 12.9294 117.448 13.4832 117.831 14.1789C118.213 14.8745 118.403 15.646 118.403 16.4922C118.403 16.9274 118.391 17.2603 118.367 17.49L118.368 17.4911ZM116.667 14.5701C116.358 14.0503 115.937 13.6569 115.404 13.3909C114.871 13.125 114.288 12.992 113.658 12.992C112.712 12.992 111.906 13.2942 111.24 13.8986C110.573 14.5031 110.203 15.3559 110.131 16.457H117.112C117.125 15.7196 116.976 15.0899 116.667 14.5701Z" fill="white"/>
<path d="M120.768 14.3072C121.18 13.539 121.747 12.9467 122.469 12.5291C123.19 12.1115 124.005 11.9027 124.914 11.9027C125.823 11.9027 126.575 12.1148 127.278 12.5379C127.98 12.961 128.496 13.5116 128.823 14.1885V8.52783H130.096V21.9526H128.823V19.7393C128.52 20.4284 128.023 20.9943 127.331 21.4361C126.641 21.8779 125.828 22.0988 124.895 22.0988C123.962 22.0988 123.17 21.8878 122.45 21.4636C121.729 21.0405 121.165 20.4416 120.759 19.6679C120.353 18.8942 120.15 17.9986 120.15 16.9832C120.15 15.9677 120.356 15.0754 120.768 14.3072ZM128.333 14.8974C128.006 14.2929 127.559 13.827 126.997 13.5006C126.433 13.1742 125.812 13.0105 125.133 13.0105C124.455 13.0105 123.799 13.1676 123.242 13.4819C122.685 13.7962 122.245 14.2534 121.924 14.8512C121.602 15.4501 121.442 16.16 121.442 16.9832C121.442 17.8063 121.603 18.5041 121.924 19.1151C122.244 19.7261 122.685 20.1921 123.242 20.5119C123.799 20.8328 124.429 20.9921 125.133 20.9921C125.837 20.9921 126.433 20.8284 126.997 20.502C127.561 20.1756 128.006 19.7097 128.333 19.1052C128.66 18.5008 128.824 17.7986 128.824 17.0007C128.824 16.2029 128.66 15.5007 128.333 14.8963V14.8974Z" fill="white"/>
<path d="M132.988 9.90732C132.806 9.726 132.715 9.50181 132.715 9.23586C132.715 8.96992 132.806 8.74903 132.988 8.5732C133.17 8.39846 133.388 8.31055 133.642 8.31055C133.897 8.31055 134.115 8.39846 134.296 8.5732C134.478 8.74903 134.57 8.96992 134.57 9.23586C134.57 9.50181 134.478 9.726 134.296 9.90732C134.115 10.0887 133.897 10.1799 133.642 10.1799C133.388 10.1799 133.17 10.0887 132.988 9.90732ZM134.279 12.0481V21.954H133.006V12.0481H134.279Z" fill="white"/>
<path d="M138.822 13.1177V19.2675C138.822 19.8719 138.937 20.2895 139.168 20.5192C139.398 20.7488 139.805 20.8642 140.386 20.8642H141.551V21.9533H140.187C139.289 21.9533 138.623 21.7445 138.187 21.3269C137.751 20.9093 137.533 20.2235 137.533 19.2675V13.1177H136.15V12.0473H137.533V9.56152H138.823V12.0473H141.551V13.1177H138.823H138.822Z" fill="white"/>
</svg>
