<svg width="142" height="34" viewBox="0 0 142 34" fill="none" xmlns="http://www.w3.org/2000/svg">
<path d="M20.0545 6.13856L16.8362 15.4225L13.6179 6.13856C13.0617 5.06928 13.2644 3.76373 14.118 2.91204L16.8362 0.199829L19.5544 2.91204C20.408 3.76373 20.6107 5.06928 20.0545 6.13856Z" fill="black"/>
<path d="M13.6179 27.861L16.8362 18.577L20.0545 27.861C20.6107 28.9302 20.408 30.2358 19.5544 31.0875L16.8362 33.7997L14.118 31.0875C13.2644 30.2358 13.0617 28.9302 13.6179 27.861Z" fill="black"/>
<path d="M5.95193 13.7873L15.2565 16.9984L5.95193 20.2095C4.88027 20.7645 3.57182 20.5623 2.71824 19.7106L0 16.9984L2.71824 14.2862C3.57182 13.4345 4.88027 13.2323 5.95193 13.7873Z" fill="black"/>
<path d="M27.7225 20.2095L18.418 16.9984L27.7225 13.7873C28.7942 13.2323 30.1026 13.4345 30.9562 14.2862L33.6745 16.9984L30.9562 19.7106C30.1026 20.5623 28.7942 20.7645 27.7225 20.2095Z" fill="black"/>
<path d="M11.4166 7.04877L15.7198 15.8843L6.86459 11.5907C5.71363 11.227 4.93164 10.161 4.93164 8.95655V5.12122H8.7755C9.98263 5.12122 11.051 5.90147 11.4155 7.04987L11.4166 7.04877Z" fill="black"/>
<path d="M22.2582 26.9504L17.9551 18.1149L26.8103 22.4085C27.9612 22.7722 28.7432 23.8382 28.7432 25.0427V28.878H24.8994C23.6922 28.878 22.6239 28.0977 22.2593 26.9493L22.2582 26.9504Z" fill="black"/>
<path d="M6.86349 22.4085L15.7187 18.1149L11.4155 26.9504C11.051 28.0988 9.98263 28.8791 8.7755 28.8791H4.93164V25.0438C4.93164 23.8393 5.71363 22.7733 6.86459 22.4096L6.86349 22.4085Z" fill="black"/>
<path d="M26.8103 11.5899L17.9551 15.8835L22.2582 7.04792C22.6228 5.89952 23.6911 5.11926 24.8983 5.11926H28.7421V8.9546C28.7421 10.1591 27.9601 11.225 26.8092 11.5888L26.8103 11.5899Z" fill="black"/>
<path d="M20.0545 6.13856L16.8362 12.3322L13.6179 6.13856C13.0617 5.06928 13.2644 3.76373 14.118 2.91204L16.8362 0.199829L19.5544 2.91204C20.408 3.76373 20.6107 5.06928 20.0545 6.13856Z" fill="black"/>
<path d="M13.6179 27.8615L16.8362 21.6678L20.0545 27.8615C20.6107 28.9308 20.408 30.2364 19.5544 31.0881L16.8362 33.8003L14.118 31.0881C13.2644 30.2364 13.0617 28.9308 13.6179 27.8615Z" fill="black"/>
<path d="M5.95193 13.7873L12.1594 16.9984L5.95193 20.2095C4.88027 20.7645 3.57182 20.5623 2.71824 19.7106L0 16.9984L2.71824 14.2862C3.57182 13.4345 4.88027 13.2323 5.95193 13.7873Z" fill="black"/>
<path d="M27.7211 20.2095L21.5137 16.9984L27.7211 13.7873C28.7928 13.2323 30.1012 13.4345 30.9548 14.2862L33.6731 16.9984L30.9548 19.7106C30.1012 20.5623 28.7928 20.7645 27.7211 20.2095Z" fill="black"/>
<path d="M11.4166 7.04877L13.5302 13.6996L6.86459 11.5907C5.71363 11.227 4.93164 10.161 4.93164 8.95655V5.12122H8.7755C9.98263 5.12122 11.051 5.90147 11.4155 7.04987L11.4166 7.04877Z" fill="black"/>
<path d="M22.2581 26.9505L20.1445 20.2997L26.8102 22.4086C27.9611 22.7723 28.7431 23.8383 28.7431 25.0428V28.8781H24.8992C23.6921 28.8781 22.6238 28.0978 22.2592 26.9494L22.2581 26.9505Z" fill="black"/>
<path d="M6.86349 22.4086L13.5291 20.2997L11.4155 26.9505C11.051 28.0989 9.98263 28.8792 8.7755 28.8792H4.93164V25.0439C4.93164 23.8394 5.71363 22.7734 6.86459 22.4097L6.86349 22.4086Z" fill="black"/>
<path d="M26.8102 11.5899L20.1445 13.6988L22.2581 7.04792C22.6227 5.89952 23.691 5.11926 24.8981 5.11926H28.742V8.9546C28.742 10.1591 27.96 11.225 26.8091 11.5888L26.8102 11.5899Z" fill="black"/>
<path d="M42.6469 14.0979C43.0291 13.3121 43.5501 12.7066 44.2109 12.2835C44.8718 11.8604 45.6075 11.6483 46.4203 11.6483C47.123 11.6483 47.7299 11.7879 48.2387 12.0659C48.7476 12.344 49.1419 12.7187 49.4205 13.1912V11.7758H52.9846V21.9532H49.4205V20.5377C49.1419 21.0092 48.7443 21.3839 48.2299 21.6631C47.7145 21.9411 47.112 22.0807 46.4203 22.0807C45.6086 22.0807 44.8718 21.8697 44.2109 21.4455C43.5501 21.0224 43.0291 20.4146 42.6469 19.6223C42.2648 18.83 42.0742 17.9079 42.0742 16.8551C42.0742 15.8023 42.2648 14.8836 42.6469 14.0979ZM48.8841 15.3133C48.5262 14.9386 48.0867 14.7507 47.5658 14.7507C47.0448 14.7507 46.5899 14.9353 46.2386 15.3045C45.8872 15.6738 45.711 16.1903 45.711 16.8562C45.711 17.5222 45.8861 18.0266 46.2386 18.408C46.5899 18.7893 47.0327 18.9794 47.5658 18.9794C48.0988 18.9794 48.5262 18.7915 48.8841 18.4168C49.2421 18.042 49.4205 17.5222 49.4205 16.8562C49.4205 16.1903 49.2421 15.6892 48.8841 15.3144V15.3133Z" fill="black"/>
<path d="M60.5932 12.0665C61.1086 12.3446 61.5051 12.7193 61.7838 13.1919V11.7764H65.3479V21.845C65.3479 22.8 65.1662 23.6616 64.8027 24.4308C64.4393 25.199 63.872 25.8122 63.1022 26.2727C62.3323 26.732 61.3598 26.9617 60.1835 26.9617C58.6074 26.9617 57.3474 26.5925 56.4013 25.8551C55.4563 25.1177 54.9166 24.1132 54.7833 22.8439H58.2924C58.3651 23.1703 58.5468 23.4242 58.8376 23.6055C59.1283 23.7868 59.5039 23.878 59.9654 23.878C61.1769 23.878 61.7838 23.2011 61.7838 21.8461V20.5394C61.5051 21.0109 61.1075 21.3856 60.5932 21.6648C60.0777 21.9428 59.4753 22.0824 58.7836 22.0824C57.9719 22.0824 57.235 21.8714 56.5742 21.4472C55.9134 21.0241 55.3924 20.4164 55.0102 19.624C54.628 18.8317 54.4375 17.9096 54.4375 16.8569C54.4375 15.8041 54.628 14.8853 55.0102 14.0996C55.3924 13.3138 55.9134 12.7083 56.5742 12.2852C57.235 11.8621 57.9708 11.65 58.7836 11.65C59.4742 11.65 60.0777 11.7896 60.5932 12.0676V12.0665ZM61.2474 15.3139C60.8895 14.9392 60.45 14.7513 59.929 14.7513C59.4081 14.7513 58.9532 14.9359 58.6019 15.3051C58.2505 15.6744 58.0743 16.1909 58.0743 16.8569C58.0743 17.5228 58.2494 18.0272 58.6019 18.4086C58.9532 18.7899 59.396 18.98 59.929 18.98C60.4621 18.98 60.8895 18.7921 61.2474 18.4174C61.6054 18.0426 61.7838 17.5228 61.7838 16.8569C61.7838 16.1909 61.6054 15.6898 61.2474 15.315V15.3139Z" fill="black"/>
<path d="M67.3755 14.0979C67.7576 13.3121 68.2786 12.7066 68.9394 12.2835C69.6003 11.8604 70.336 11.6483 71.1488 11.6483C71.8515 11.6483 72.4584 11.7879 72.9672 12.0659C73.4761 12.344 73.8704 12.7187 74.149 13.1912V11.7758H77.7131V21.9532H74.149V20.5377C73.8704 21.0092 73.4728 21.3839 72.9584 21.6631C72.443 21.9411 71.8405 22.0807 71.1488 22.0807C70.3371 22.0807 69.6003 21.8697 68.9394 21.4455C68.2786 21.0224 67.7576 20.4146 67.3755 19.6223C66.9933 18.83 66.8027 17.9079 66.8027 16.8551C66.8027 15.8023 66.9933 14.8836 67.3755 14.0979ZM73.6127 15.3133C73.2547 14.9386 72.8152 14.7507 72.2943 14.7507C71.7733 14.7507 71.3184 14.9353 70.9671 15.3045C70.6158 15.6738 70.4395 16.1903 70.4395 16.8562C70.4395 17.5222 70.6147 18.0266 70.9671 18.408C71.3184 18.7893 71.7612 18.9794 72.2943 18.9794C72.8274 18.9794 73.2547 18.7915 73.6127 18.4168C73.9706 18.042 74.149 17.5222 74.149 16.8562C74.149 16.1903 73.9706 15.6892 73.6127 15.3144V15.3133Z" fill="black"/>
<path d="M85.7652 18.9229V21.9528H84.22C81.6141 21.9528 80.3111 20.6648 80.3111 18.0888V14.7326H79.0566V11.7754H80.3111V9.30823H83.8929V11.7754H85.7476V14.7326H83.8929V18.1438C83.8929 18.4218 83.9567 18.6218 84.0834 18.7427C84.2112 18.8636 84.4259 18.924 84.7288 18.924H85.7652V18.9229Z" fill="black"/>
<path d="M91.7301 14.3067C92.142 13.5386 92.7114 12.9462 93.4394 12.5286C94.1663 12.111 94.9968 11.9022 95.9308 11.9022C97.1544 11.9022 98.1644 12.2044 98.9585 12.8089C99.7526 13.4133 100.265 14.2364 100.495 15.276H99.1314C98.9618 14.5628 98.595 14.0034 98.0311 13.5979C97.4672 13.1924 96.7678 12.9902 95.9308 12.9902C95.2644 12.9902 94.6642 13.1418 94.1311 13.444C93.598 13.7463 93.1762 14.1968 92.8678 14.7958C92.5583 15.3947 92.4041 16.1288 92.4041 17.0003C92.4041 17.8717 92.5583 18.6091 92.8678 19.2135C93.1773 19.818 93.598 20.2718 94.1311 20.574C94.6642 20.8763 95.2644 21.0279 95.9308 21.0279C96.7667 21.0279 97.4672 20.8257 98.0311 20.4202C98.595 20.0147 98.9618 19.4498 99.1314 18.7234H100.495C100.265 19.7388 99.7493 20.5554 98.9497 21.173C98.1501 21.7895 97.1434 22.0983 95.9319 22.0983C94.9979 22.0983 94.1685 21.8895 93.4405 21.4719C92.7136 21.0543 92.1431 20.462 91.7312 19.6938C91.3192 18.9256 91.1133 18.0278 91.1133 16.9992C91.1133 15.9705 91.3192 15.0727 91.7312 14.3045L91.7301 14.3067Z" fill="black"/>
<path d="M105.395 12.3736C105.971 12.0351 106.677 11.8658 107.513 11.8658V13.1901H107.167C106.245 13.1901 105.506 13.4384 104.949 13.9341C104.392 14.4297 104.113 15.2583 104.113 16.4199V21.9531H102.84V12.0472H104.113V13.8066C104.392 13.1901 104.819 12.712 105.395 12.3736Z" fill="black"/>
<path d="M118.368 17.4915H110.132C110.168 18.2421 110.35 18.8828 110.677 19.4146C111.004 19.9465 111.435 20.3488 111.968 20.6213C112.501 20.8938 113.082 21.029 113.714 21.029C114.537 21.029 115.231 20.829 115.795 20.4301C116.359 20.0312 116.731 19.4927 116.913 18.8157H118.259C118.017 19.7839 117.498 20.5729 116.705 21.1829C115.911 21.7939 114.914 22.0994 113.714 22.0994C112.78 22.0994 111.944 21.8906 111.205 21.473C110.466 21.0554 109.886 20.463 109.468 19.6949C109.049 18.9267 108.84 18.0289 108.84 17.0003C108.84 15.9716 109.046 15.0716 109.458 14.2968C109.87 13.5232 110.446 12.9297 111.185 12.5187C111.924 12.1077 112.766 11.9022 113.712 11.9022C114.659 11.9022 115.486 12.1077 116.194 12.5187C116.903 12.9297 117.448 13.4836 117.831 14.1792C118.213 14.8749 118.403 15.6463 118.403 16.4925C118.403 16.9277 118.391 17.2607 118.367 17.4904L118.368 17.4915ZM116.667 14.5705C116.358 14.0507 115.937 13.6572 115.404 13.3913C114.871 13.1254 114.288 12.9924 113.658 12.9924C112.712 12.9924 111.906 13.2946 111.24 13.899C110.573 14.5034 110.203 15.3562 110.131 16.4574H117.112C117.125 15.72 116.976 15.0903 116.667 14.5705Z" fill="black"/>
<path d="M120.768 14.3076C121.18 13.5394 121.747 12.9471 122.469 12.5295C123.19 12.1119 124.005 11.9031 124.914 11.9031C125.823 11.9031 126.575 12.1152 127.278 12.5383C127.98 12.9614 128.496 13.5119 128.823 14.1889V8.5282H130.096V21.953H128.823V19.7397C128.52 20.4287 128.023 20.9947 127.331 21.4365C126.641 21.8783 125.828 22.0991 124.895 22.0991C123.962 22.0991 123.17 21.8881 122.45 21.4639C121.729 21.0409 121.165 20.4419 120.759 19.6683C120.353 18.8946 120.15 17.999 120.15 16.9835C120.15 15.9681 120.356 15.0757 120.768 14.3076ZM128.333 14.8977C128.006 14.2933 127.559 13.8273 126.997 13.501C126.433 13.1746 125.812 13.0108 125.133 13.0108C124.455 13.0108 123.799 13.168 123.242 13.4823C122.685 13.7966 122.245 14.2537 121.924 14.8516C121.602 15.4505 121.442 16.1604 121.442 16.9835C121.442 17.8066 121.603 18.5045 121.924 19.1155C122.244 19.7265 122.685 20.1925 123.242 20.5123C123.799 20.8332 124.429 20.9925 125.133 20.9925C125.837 20.9925 126.433 20.8288 126.997 20.5024C127.561 20.176 128.006 19.71 128.333 19.1056C128.66 18.5012 128.824 17.7989 128.824 17.0011C128.824 16.2033 128.66 15.501 128.333 14.8966V14.8977Z" fill="black"/>
<path d="M132.988 9.90769C132.806 9.72636 132.715 9.50218 132.715 9.23623C132.715 8.97029 132.806 8.7494 132.988 8.57356C133.17 8.39883 133.388 8.31091 133.642 8.31091C133.897 8.31091 134.115 8.39883 134.296 8.57356C134.478 8.7494 134.57 8.97029 134.57 9.23623C134.57 9.50218 134.478 9.72636 134.296 9.90769C134.115 10.089 133.897 10.1802 133.642 10.1802C133.388 10.1802 133.17 10.089 132.988 9.90769ZM134.279 12.0484V21.9544H133.006V12.0484H134.279Z" fill="black"/>
<path d="M138.822 13.1183V19.2681C138.822 19.8725 138.937 20.2901 139.168 20.5198C139.398 20.7495 139.805 20.8648 140.386 20.8648H141.551V21.9539H140.187C139.289 21.9539 138.623 21.7451 138.187 21.3275C137.751 20.9099 137.533 20.2242 137.533 19.2681V13.1183H136.15V12.048H137.533V9.56213H138.823V12.048H141.551V13.1183H138.823H138.822Z" fill="black"/>
</svg>
