<svg width="134" height="24" viewBox="0 0 134 24" fill="none" xmlns="http://www.w3.org/2000/svg">
<g clip-path="url(#clip0_955_2867)">
<path d="M40.6762 6.3716L45.2929 17.559C44.6808 17.6918 44.057 17.7626 43.4307 17.7704C43.0732 17.7695 42.7164 17.7399 42.3636 17.682L41.4713 15.4448H36.8547L35.9624 17.682C35.5246 17.7325 35.0841 17.7561 34.6435 17.7527C34.1258 17.7682 33.6089 17.7029 33.1113 17.559L37.7671 6.3716C38.2608 6.29351 38.7604 6.25846 39.2602 6.26684C39.7343 6.26016 40.2082 6.29521 40.6762 6.3716ZM37.7469 13.2606H40.579L39.5315 10.6529L39.1428 9.56114L38.7938 10.6536L37.7469 13.2606Z" fill="black"/>
<path d="M55.9235 6.28481C56.4167 6.28671 56.9092 6.32192 57.3976 6.3902V17.6293C56.4806 17.7832 55.5489 17.8305 54.621 17.77L49.81 11.3392L49.4024 10.6696L49.48 11.48V17.6823C48.9981 17.751 48.5121 17.7862 48.0254 17.7877C47.5517 17.7825 47.0787 17.7473 46.6094 17.6823V6.47414C47.0461 6.35469 47.4953 6.2867 47.9478 6.27156C48.4263 6.24117 48.9064 6.25003 49.3834 6.29806L54.1749 12.8696L54.6015 13.5562L54.5239 12.6582V6.38894C54.9877 6.32385 55.4552 6.28906 55.9235 6.28481Z" fill="black"/>
<path d="M65.8173 17.9992C64.9325 18.0069 64.053 17.8608 63.2181 17.5675C62.4507 17.2993 61.7432 16.8833 61.1357 16.3432C60.5461 15.8132 60.0794 15.1608 59.7682 14.4316C59.4481 13.6672 59.2832 12.8468 59.2832 12.018C59.2832 11.1893 59.4481 10.3688 59.7682 9.60442C60.0808 8.87346 60.5472 8.21846 61.1357 7.68401C61.7424 7.13849 62.4498 6.71661 63.2181 6.44202C64.0516 6.1425 64.9316 5.99294 65.8173 6.00026C66.7055 5.99309 67.5882 6.13912 68.4267 6.43192C69.1954 6.69738 69.9034 7.11361 70.5091 7.65624C71.0937 8.18859 71.5568 8.84055 71.8671 9.56781C72.1953 10.3391 72.3603 11.17 72.3517 12.0082C72.3568 12.8288 72.1918 13.6415 71.8671 14.395C71.5545 15.1259 71.0881 15.7809 70.4996 16.3154C69.8895 16.8629 69.1776 17.2849 68.4046 17.5574C67.5747 17.855 66.699 18.0045 65.8173 17.9992ZM65.8173 15.5152C66.2717 15.5349 66.7252 15.4597 67.1489 15.2944C67.5726 15.1292 67.9573 14.8774 68.2784 14.5553C68.5951 14.2142 68.8406 13.8134 69.0005 13.3762C69.1604 12.9391 69.2316 12.4745 69.2098 12.0095C69.2342 11.5403 69.1643 11.0709 69.0043 10.6291C68.8444 10.1873 68.5975 9.78202 68.2784 9.43718C67.6039 8.82498 66.7257 8.48583 65.8148 8.48583C64.9039 8.48583 64.0257 8.82498 63.3512 9.43718C63.0322 9.78209 62.7855 10.1874 62.6257 10.6292C62.4658 11.071 62.396 11.5403 62.4204 12.0095C62.3986 12.4744 62.4697 12.939 62.6295 13.3762C62.7893 13.8133 63.0347 14.2141 63.3512 14.5553C63.6729 14.8781 64.0584 15.1302 64.483 15.2955C64.9077 15.4607 65.3621 15.5356 65.8173 15.5152Z" fill="black"/>
<path d="M81.5299 13.2075L84.4396 17.562C83.6356 17.7252 82.8156 17.7962 81.9956 17.7734L81.2585 17.7557L78.6984 13.7919H78.5627L77.1467 13.7742V17.6869C76.6723 17.7651 76.1918 17.8003 75.7111 17.7923C75.2174 17.7981 74.7241 17.7628 74.2363 17.6869V6.54756C74.8055 6.44195 75.4845 6.35381 76.2733 6.28313C77.0621 6.21245 77.7798 6.17732 78.4264 6.17774C79.0928 6.17718 79.7579 6.23313 80.4148 6.34498C81.0173 6.439 81.5983 6.63876 82.1313 6.93505C82.6423 7.21403 83.0643 7.63138 83.3491 8.13925C83.6338 8.64713 83.7696 9.22497 83.741 9.80651C83.7347 10.2218 83.6693 10.634 83.5467 11.0308C83.4033 11.4955 83.1543 11.9206 82.8191 12.2728C82.4555 12.6667 82.0173 12.9844 81.5299 13.2075ZM77.146 8.45093V11.6064L78.6782 11.6241C79.2478 11.6683 79.8138 11.5021 80.2691 11.157C80.4387 11.0098 80.5736 10.8269 80.6642 10.6213C80.7548 10.4157 80.7987 10.1926 80.7928 9.96807C80.8008 9.74756 80.7556 9.52837 80.661 9.329C80.5665 9.12964 80.4253 8.95597 80.2495 8.82264C79.7804 8.50997 79.2211 8.36129 78.6586 8.39981C78.1534 8.39855 77.6486 8.41538 77.1442 8.4503L77.146 8.45093Z" fill="black"/>
<path d="M93.3607 11.9035C93.8168 12.0489 94.2413 12.2791 94.612 12.5819C94.9284 12.834 95.1727 13.1651 95.3201 13.5418C95.5599 14.1748 95.5781 14.8704 95.3719 15.5151C95.1656 16.1598 94.7469 16.7156 94.1842 17.0917C93.2982 17.6967 91.9371 17.9992 90.1008 17.9992C88.7235 18.0105 87.3477 17.9049 85.9883 17.6837V6.56511C87.3195 6.32354 88.6702 6.20566 90.0231 6.21297C93.3209 6.21297 94.9699 7.29361 94.9699 9.45488C95.006 9.9828 94.8682 10.508 94.5776 10.9502C94.287 11.3924 93.8596 11.7273 93.3607 11.9035ZM90.2377 8.32712C89.8233 8.32712 89.3706 8.34479 88.8797 8.38013V10.9329H90.3544C90.8327 10.9721 91.3105 10.8511 91.7124 10.589C91.8576 10.4651 91.9717 10.309 92.0458 10.1331C92.1199 9.95722 92.1518 9.76646 92.139 9.57605C92.1438 9.39462 92.1017 9.21502 92.0168 9.05461C91.9319 8.8942 91.8071 8.7584 91.6544 8.66034C91.2259 8.41062 90.7326 8.29459 90.2377 8.32712ZM90.3929 15.8851C91.8544 15.8851 92.5851 15.3918 92.5851 14.4052C92.5927 14.2005 92.5474 13.9974 92.4537 13.8154C92.3599 13.6333 92.2209 13.4785 92.05 13.3658C91.5847 13.0906 91.0473 12.9618 90.5078 12.9959H88.8784V15.8327C89.3706 15.8676 89.8755 15.8851 90.3929 15.8851Z" fill="black"/>
<path d="M103.448 6.37152L108.068 17.5595C107.456 17.6923 106.832 17.7632 106.205 17.7709C105.848 17.77 105.491 17.7405 105.138 17.6826L104.246 15.4454H99.6287L98.7364 17.6826C98.2986 17.733 97.8582 17.7566 97.4175 17.7533C96.8996 17.7689 96.3825 17.7035 95.8848 17.5595L100.541 6.37215C101.034 6.29392 101.533 6.25866 102.032 6.26676C102.507 6.26009 102.98 6.29515 103.448 6.37152ZM100.519 13.2605H103.351L102.304 10.6528L101.916 9.56043L101.568 10.6528L100.519 13.2605Z" fill="black"/>
<path d="M118.695 6.28481C119.188 6.2867 119.681 6.32192 120.169 6.3902V17.6293C119.252 17.7833 118.32 17.8305 117.393 17.77L112.581 11.3392L112.174 10.6696L112.252 11.48V17.6823C111.77 17.7511 111.284 17.7863 110.797 17.7877C110.323 17.7825 109.85 17.7473 109.381 17.6823V6.47414C109.818 6.35468 110.267 6.28669 110.719 6.27156C111.198 6.24117 111.678 6.25003 112.155 6.29806L116.946 12.8696L117.373 13.5562L117.295 12.6582V6.38894C117.759 6.32385 118.227 6.28906 118.695 6.28481Z" fill="black"/>
<path d="M128.764 11.6577L134.059 17.5774C133.333 17.6784 132.6 17.7255 131.867 17.7181L130.334 17.6828L126.513 13.3484L125.64 13.9297V17.6821C125.165 17.7532 124.685 17.7884 124.205 17.7875C123.718 17.7861 123.232 17.7508 122.75 17.6821V6.38939C123.212 6.31834 123.679 6.2831 124.146 6.28399C124.646 6.28542 125.145 6.32063 125.64 6.38939V10.9698C126.49 10.3492 127.282 9.65344 128.007 8.89103C128.742 8.091 129.417 7.23707 130.026 6.33638C130.478 6.30145 130.963 6.28378 131.48 6.28336C132.129 6.28051 132.776 6.3157 133.42 6.38876C132.126 8.35739 130.559 10.1316 128.764 11.6577Z" fill="black"/>
<path d="M15.6924 12V14.6571H13.0475C12.3447 14.6551 11.6715 14.374 11.1759 13.8758C10.6802 13.3775 10.4027 12.7028 10.4043 12C10.4023 11.2959 10.6797 10.6199 11.1757 10.1202C11.5455 9.74839 12.0177 9.49506 12.532 9.39252C13.0464 9.28999 13.5796 9.34289 14.0638 9.5445C14.5479 9.74611 14.9611 10.0873 15.2507 10.5246C15.5403 10.9619 15.6932 11.4755 15.6899 12H15.6924Z" fill="black"/>
<path d="M17.5992 0H8.49711C6.53254 0.00499521 4.6504 0.790158 3.26462 2.18281C1.87883 3.57546 1.10289 5.46155 1.10744 7.42629V16.5737C1.10312 18.5384 1.87913 20.4243 3.26487 21.8169C4.6506 23.2095 6.53261 23.9948 8.49711 24H24.988V7.42629C24.9928 5.46163 24.2171 3.57554 22.8314 2.18286C21.4458 0.790185 19.5637 0.00499505 17.5992 0ZM19.7419 18.7243H13.0482C11.2695 18.7195 9.56562 18.0084 8.31116 16.7474C7.05669 15.4864 6.35439 13.7788 6.35872 12C6.35574 10.6159 6.7803 9.26464 7.57435 8.13099C8.3684 6.99735 9.49319 6.13665 10.7949 5.66657V3.65571C10.7948 3.62468 10.804 3.59432 10.8212 3.56851C10.8384 3.54271 10.863 3.52263 10.8917 3.51085C10.9204 3.49907 10.952 3.49612 10.9824 3.50238C11.0128 3.50865 11.0406 3.52383 11.0623 3.546L12.1362 4.64229C12.152 4.65837 12.1711 4.67084 12.1922 4.67884C12.2132 4.68684 12.2358 4.69018 12.2583 4.68863C12.2807 4.68709 12.3026 4.68069 12.3224 4.66987C12.3422 4.65906 12.3594 4.64409 12.3728 4.626L12.9239 3.88629C12.9384 3.86678 12.9573 3.85094 12.979 3.84002C13.0007 3.82911 13.0247 3.82343 13.049 3.82343C13.0733 3.82343 13.0973 3.82911 13.119 3.84002C13.1408 3.85094 13.1596 3.86678 13.1742 3.88629L13.7261 4.626C13.7394 4.64422 13.7566 4.6593 13.7764 4.6702C13.7962 4.6811 13.8181 4.68755 13.8406 4.6891C13.8631 4.69065 13.8857 4.68726 13.9068 4.67918C13.9279 4.67109 13.9469 4.6585 13.9627 4.64229L15.0374 3.546C15.0591 3.52383 15.087 3.50865 15.1174 3.50238C15.1478 3.49612 15.1793 3.49907 15.2081 3.51085C15.2368 3.52263 15.2613 3.54271 15.2785 3.56851C15.2958 3.59432 15.3049 3.62468 15.3048 3.65571V5.66657C16.6061 6.13722 17.7304 6.99809 18.5243 8.13162C19.3181 9.26516 19.7427 10.6161 19.7402 12L19.7419 18.7243Z" fill="black"/>
</g>
<defs>
<clipPath id="clip0_955_2867">
<rect width="133" height="24" fill="white" transform="translate(0.875)"/>
</clipPath>
</defs>
</svg>
