<svg width="124" height="24" viewBox="0 0 124 24" fill="none" xmlns="http://www.w3.org/2000/svg">
<path d="M5.64341 6.39729L7.18301 7.9298L3.24023 11.8567L7.37413 15.9375L5.66288 17.6045L0 12.0142L5.64341 6.39729ZM15.419 17.7124L16.8772 19.1635L12.0442 24L6.64504 18.6256L8.31736 16.9586L12.2336 20.8518L15.419 17.7124ZM18.0734 15.1057L19.5847 16.6117L24.2442 12.0672L12.0726 0L6.61672 5.40097L8.15632 6.93349L12.1823 2.95532L21.2075 11.9328L18.0734 15.1057Z" fill="black"/>
<path d="M29.2995 17.631L27.7599 16.0985L31.7026 12.1504L27.5687 8.06253L29.2729 6.39552L34.9163 12.0124L29.2995 17.631ZM19.4974 6.31588L18.0392 4.83822L22.8491 0L28.2571 5.3762L26.5547 7.06798L22.6615 3.14644L19.4974 6.31588ZM16.8429 8.92258L15.3387 7.41837L10.6934 11.9611L22.8721 23.9947L28.2996 18.5937L26.76 17.0612L22.7341 21.0394L13.7177 12.0672L16.8429 8.92258Z" fill="black"/>
<path d="M37.4844 6.91341H41.3192C41.9818 6.88643 42.645 6.94954 43.2906 7.101C43.8877 7.26862 44.4286 7.59381 44.8567 8.04245C45.2979 8.52586 45.6378 9.09266 45.8566 9.70946C46.1013 10.5013 46.2207 11.3264 46.2105 12.1551C46.227 12.9025 46.1176 13.6473 45.8867 14.3583C45.6676 15.0469 45.2879 15.6735 44.7789 16.1864C44.3474 16.5645 43.8417 16.8484 43.2941 17.0199C42.6848 17.1779 42.0565 17.2506 41.4272 17.2358H37.4844V6.91341ZM39.5637 8.66006V15.5139H41.1281C41.5533 15.5335 41.9793 15.4972 42.3952 15.406C42.7098 15.3464 43.0005 15.197 43.2322 14.9759C43.4928 14.6947 43.6789 14.3529 43.7737 13.9814C43.9331 13.3579 44.0058 12.7153 43.9896 12.0719C44.0085 11.4454 43.9358 10.8194 43.7737 10.2138C43.6601 9.83853 43.4559 9.49697 43.1791 9.21927C42.9105 8.96384 42.5715 8.79492 42.2058 8.73438C41.634 8.65139 41.0563 8.61529 40.4786 8.62644H39.5602L39.5637 8.66006Z" fill="black"/>
<path d="M57.6015 17.2536H55.301L54.3843 14.9159H50.2256L49.3585 17.2536H47.127L51.1777 6.90649H53.3933L57.6015 17.2536ZM53.7083 13.141L52.2766 9.29729L50.8715 13.141H53.7083Z" fill="black"/>
<path d="M60.4105 17.2535L56.6836 6.90991H58.9505L61.605 14.5707L64.1462 6.90991H66.3919L62.665 17.2571L60.4105 17.2535Z" fill="black"/>
<path d="M67.5165 17.2537V6.90478H71.9406C72.7596 6.86405 73.5798 6.95426 74.3703 7.17199C74.879 7.35181 75.309 7.70355 75.5861 8.16654C75.8919 8.65869 76.0514 9.22762 76.0462 9.807C76.0651 10.5184 75.812 11.2101 75.3384 11.7412C74.791 12.2978 74.0632 12.641 73.2855 12.7092C73.6977 12.9472 74.0782 13.2361 74.4181 13.5693C74.8659 14.096 75.2639 14.6629 75.6073 15.2628L76.8744 17.2749H74.3633L72.852 15.0169C72.5101 14.4868 72.1403 13.9752 71.7442 13.4843C71.5768 13.2916 71.3638 13.1438 71.1248 13.0543C70.7817 12.9632 70.4263 12.9267 70.0718 12.9464H69.6401V17.2767H67.5059L67.5165 17.2537ZM69.6224 11.2864H71.1885C71.8215 11.3156 72.4558 11.271 73.0785 11.1537C73.3161 11.0748 73.5238 10.9247 73.6731 10.7237C73.8204 10.4912 73.8956 10.2202 73.889 9.94504C73.9078 9.64291 73.811 9.34494 73.6182 9.11153C73.4121 8.88963 73.1347 8.74688 72.8343 8.70805C72.6715 8.68151 72.1583 8.6815 71.2947 8.6815H69.6471V11.2864H69.6224Z" fill="black"/>
<path d="M82.2891 6.91335H86.4477C87.062 6.89583 87.6766 6.93195 88.2846 7.0213C88.6713 7.0908 89.0401 7.23701 89.3694 7.45133C89.6986 7.67606 89.9751 7.96948 90.1799 8.31138C90.3999 8.6756 90.5121 9.09466 90.5038 9.52005C90.507 9.9989 90.3657 10.4676 90.0985 10.865C89.8306 11.2667 89.4545 11.5845 89.0137 11.7817C89.5916 11.9232 90.1051 12.2548 90.4719 12.7231C90.8201 13.1668 91.0017 13.7185 90.9851 14.2822C90.987 14.7579 90.876 15.2273 90.6613 15.6519C90.4656 16.0818 90.1605 16.4528 89.7765 16.7278C89.3579 17.0082 88.8737 17.1752 88.3713 17.2127C88.0174 17.2393 87.1821 17.2658 85.8319 17.2906H82.2926L82.2891 6.91335ZM84.395 8.63345V11.026H85.7717C86.5822 11.026 87.0954 11.026 87.3113 10.9995C87.6256 10.9761 87.9218 10.8433 88.1484 10.6243C88.2512 10.5182 88.3308 10.3917 88.382 10.2531C88.4332 10.1144 88.4549 9.96663 88.4457 9.81912C88.4547 9.67784 88.4354 9.53617 88.389 9.40245C88.3425 9.26873 88.2697 9.14566 88.1749 9.04047C87.9623 8.83211 87.6866 8.70016 87.391 8.66531C87.1751 8.63876 86.5805 8.63876 85.5824 8.63876L84.395 8.63345ZM84.395 12.7461V15.5139H86.3416C86.8194 15.5226 87.2973 15.5048 87.7732 15.4608C88.0654 15.4215 88.3337 15.2782 88.5289 15.0573C88.7339 14.8092 88.8398 14.494 88.8262 14.1725C88.8327 13.8973 88.7576 13.6263 88.6102 13.3938C88.4439 13.1748 88.2195 13.0068 87.9626 12.9089C87.3508 12.7684 86.7224 12.7142 86.0956 12.7479L84.395 12.7461Z" fill="black"/>
<path d="M102.384 17.2536H100.083L99.1664 14.9159H95.0077L94.1406 17.2536H91.8984L95.9492 6.90649H98.1648L102.384 17.2536ZM98.5223 13.141L97.0924 9.29729L95.6873 13.141H98.5223Z" fill="black"/>
<path d="M103.756 17.2535V6.90991H105.809L110.075 13.8115V6.90991H112.022V17.2571H109.916L105.729 10.5094V17.2571L103.756 17.2535Z" fill="black"/>
<path d="M114.479 17.2535V6.90991H116.584V11.511L120.832 6.90991H123.663L119.743 10.9412L123.877 17.2571H121.145L118.278 12.3905L116.584 14.1106V17.227H114.479V17.2535Z" fill="black"/>
</svg>
