<svg width="124" height="24" viewBox="0 0 124 24" fill="none" xmlns="http://www.w3.org/2000/svg">
<path d="M5.64341 6.39729L7.18301 7.9298L3.24023 11.8567L7.37413 15.9375L5.66288 17.6045L0 12.0142L5.64341 6.39729ZM15.419 17.7124L16.8772 19.1635L12.0442 24L6.64504 18.6256L8.31736 16.9586L12.2336 20.8518L15.419 17.7124ZM18.0734 15.1057L19.5847 16.6117L24.2442 12.0672L12.0726 0L6.61672 5.40097L8.15632 6.93349L12.1823 2.95532L21.2075 11.9328L18.0734 15.1057Z" fill="white"/>
<path d="M29.2995 17.631L27.7599 16.0985L31.7026 12.1504L27.5687 8.06253L29.2729 6.39552L34.9163 12.0124L29.2995 17.631ZM19.4974 6.31588L18.0392 4.83822L22.8491 0L28.2571 5.3762L26.5547 7.06798L22.6615 3.14644L19.4974 6.31588ZM16.8429 8.92258L15.3387 7.41837L10.6934 11.9611L22.8721 23.9947L28.2996 18.5937L26.76 17.0612L22.7341 21.0394L13.7177 12.0672L16.8429 8.92258Z" fill="white"/>
<path d="M37.4844 6.91378H41.3192C41.9818 6.8868 42.645 6.9499 43.2906 7.10136C43.8877 7.26899 44.4286 7.59418 44.8567 8.04282C45.2979 8.52623 45.6378 9.09303 45.8566 9.70983C46.1013 10.5016 46.2207 11.3268 46.2105 12.1555C46.227 12.9029 46.1176 13.6477 45.8867 14.3587C45.6676 15.0473 45.2879 15.6739 44.7789 16.1867C44.3474 16.5649 43.8417 16.8488 43.2941 17.0203C42.6848 17.1783 42.0565 17.2509 41.4272 17.2362H37.4844V6.91378ZM39.5637 8.66043V15.5143H41.1281C41.5533 15.5339 41.9793 15.4976 42.3952 15.4063C42.7098 15.3467 43.0005 15.1974 43.2322 14.9763C43.4928 14.6951 43.6789 14.3532 43.7737 13.9818C43.9331 13.3582 44.0058 12.7157 43.9896 12.0723C44.0085 11.4457 43.9358 10.8197 43.7737 10.2142C43.6601 9.83889 43.4559 9.49733 43.1791 9.21963C42.9105 8.96421 42.5715 8.79529 42.2058 8.73475C41.634 8.65175 41.0563 8.61565 40.4786 8.6268H39.5602L39.5637 8.66043Z" fill="white"/>
<path d="M57.6015 17.2539H55.301L54.3843 14.9162H50.2256L49.3585 17.2539H47.127L51.1777 6.90674H53.3933L57.6015 17.2539ZM53.7083 13.1412L52.2766 9.29754L50.8715 13.1412H53.7083Z" fill="white"/>
<path d="M60.4105 17.2538L56.6836 6.91016H58.9505L61.605 14.571L64.1462 6.91016H66.3919L62.665 17.2573L60.4105 17.2538Z" fill="white"/>
<path d="M67.5165 17.2539V6.90502H71.9406C72.7596 6.8643 73.5798 6.95451 74.3703 7.17224C74.879 7.35205 75.309 7.7038 75.5861 8.16678C75.8919 8.65893 76.0514 9.22786 76.0462 9.80725C76.0651 10.5186 75.812 11.2104 75.3384 11.7415C74.791 12.2981 74.0632 12.6413 73.2855 12.7095C73.6977 12.9474 74.0782 13.2364 74.4181 13.5695C74.8659 14.0962 75.2639 14.6631 75.6073 15.2631L76.8744 17.2752H74.3633L72.852 15.0171C72.5101 14.487 72.1403 13.9755 71.7442 13.4846C71.5768 13.2919 71.3638 13.1441 71.1248 13.0546C70.7817 12.9634 70.4263 12.927 70.0718 12.9466H69.6401V17.2769H67.5059L67.5165 17.2539ZM69.6224 11.2867H71.1885C71.8215 11.3158 72.4558 11.2713 73.0785 11.154C73.3161 11.0751 73.5238 10.9249 73.6731 10.7239C73.8204 10.4914 73.8956 10.2205 73.889 9.94528C73.9078 9.64315 73.811 9.34518 73.6182 9.11177C73.4121 8.88987 73.1347 8.74713 72.8343 8.7083C72.6715 8.68175 72.1583 8.68175 71.2947 8.68175H69.6471V11.2867H69.6224Z" fill="white"/>
<path d="M82.2891 6.91348H86.4477C87.062 6.89595 87.6766 6.93207 88.2846 7.02142C88.6713 7.09092 89.0401 7.23713 89.3694 7.45145C89.6986 7.67618 89.9751 7.9696 90.1799 8.3115C90.3999 8.67572 90.5121 9.09478 90.5038 9.52017C90.507 9.99903 90.3657 10.4677 90.0985 10.8651C89.8306 11.2668 89.4545 11.5846 89.0137 11.7818C89.5916 11.9233 90.1051 12.2549 90.4719 12.7232C90.8201 13.1669 91.0017 13.7186 90.9851 14.2823C90.987 14.7581 90.876 15.2275 90.6613 15.652C90.4656 16.0819 90.1605 16.4529 89.7765 16.728C89.3579 17.0083 88.8737 17.1754 88.3713 17.2128C88.0174 17.2394 87.1821 17.2659 85.8319 17.2907H82.2926L82.2891 6.91348ZM84.395 8.63358V11.0261H85.7717C86.5822 11.0261 87.0954 11.0261 87.3113 10.9996C87.6256 10.9762 87.9218 10.8435 88.1484 10.6244C88.2512 10.5183 88.3308 10.3919 88.382 10.2532C88.4332 10.1146 88.4549 9.96676 88.4457 9.81924C88.4547 9.67796 88.4354 9.53629 88.389 9.40257C88.3425 9.26885 88.2697 9.14578 88.1749 9.0406C87.9623 8.83223 87.6866 8.70028 87.391 8.66543C87.1751 8.63889 86.5805 8.63889 85.5824 8.63889L84.395 8.63358ZM84.395 12.7462V15.514H86.3416C86.8194 15.5227 87.2973 15.505 87.7732 15.4609C88.0654 15.4216 88.3337 15.2784 88.5289 15.0574C88.7339 14.8093 88.8398 14.4941 88.8262 14.1726C88.8327 13.8974 88.7576 13.6264 88.6102 13.3939C88.4439 13.1749 88.2195 13.0069 87.9626 12.9091C87.3508 12.7685 86.7224 12.7143 86.0956 12.748L84.395 12.7462Z" fill="white"/>
<path d="M102.384 17.2539H100.083L99.1664 14.9162H95.0077L94.1406 17.2539H91.8984L95.9492 6.90674H98.1648L102.384 17.2539ZM98.5223 13.1412L97.0924 9.29754L95.6873 13.1412H98.5223Z" fill="white"/>
<path d="M103.756 17.2538V6.91016H105.809L110.075 13.8118V6.91016H112.022V17.2573H109.916L105.729 10.5096V17.2573L103.756 17.2538Z" fill="white"/>
<path d="M114.479 17.2538V6.91016H116.584V11.5112L120.832 6.91016H123.663L119.743 10.9414L123.877 17.2573H121.145L118.278 12.3908L116.584 14.1109V17.2272H114.479V17.2538Z" fill="white"/>
</svg>
