<svg width="16" height="17" viewBox="0 0 16 17" fill="none" xmlns="http://www.w3.org/2000/svg">
<path d="M7.5 15.1667C7.13333 15.1667 6.764 15.1251 6.392 15.042C6.02 14.9589 5.63933 14.8393 5.25 14.6833C5.38333 13.3389 5.77222 12.0833 6.41667 10.9167C7.06111 9.75001 7.88889 8.72223 8.9 7.83334C7.67778 8.45556 6.61956 9.27779 5.72533 10.3C4.83111 11.3222 4.206 12.4889 3.85 13.8C3.80556 13.7667 3.764 13.7307 3.72533 13.692L3.6 13.5667C3.07778 13.0445 2.68067 12.4611 2.40867 11.8167C2.13667 11.1722 2.00044 10.5 2 9.80001C2 9.04445 2.15 8.32223 2.45 7.63334C2.75 6.94445 3.16667 6.33334 3.7 5.80001C4.6 4.90001 5.76667 4.31401 7.2 4.04201C8.63333 3.77001 10.6444 3.7449 13.2333 3.96668C13.4333 6.62223 13.4 8.64734 13.1333 10.042C12.8667 11.4367 12.2889 12.5782 11.4 13.4667C10.8556 14.0111 10.2471 14.4307 9.57467 14.7253C8.90222 15.02 8.21067 15.1671 7.5 15.1667Z" fill="#406BCD"/>
</svg>
