<svg width="64" height="64" viewBox="0 0 64 64" fill="none" xmlns="http://www.w3.org/2000/svg">
<path d="M29.2518 51.0918C25.7956 49.8437 23.2676 47.3476 21.5395 43.8275C19.3634 39.4113 17.7314 33.2671 17.7634 28.2749C17.7954 23.5708 18.0834 21.0427 19.5234 18.6426C17.2513 20.2106 15.4913 22.6107 14.8833 25.4268C13.1872 33.1071 16.8673 46.0996 24.0996 50.5798C24.2276 50.6758 24.4836 50.8038 24.2916 51.0598C19.7154 50.1637 15.2993 44.0835 13.1552 35.6672C12.7072 35.7632 12.5472 36.0512 12.3552 36.3392C10.7551 38.9313 11.0111 41.6514 12.2592 44.2115C14.9793 49.7157 19.2674 52.6278 24.8356 53.2358C26.3077 53.3959 27.8437 53.4279 29.2838 52.7878C29.7318 52.5958 30.2758 52.3718 30.3078 51.8278C30.3398 51.0598 29.6038 51.2518 29.2518 51.0918Z" fill="white"/>
<path d="M42.6587 13.1055C44.4508 13.0415 44.4188 14.7056 44.0668 24.1779V25.49C39.5546 25.49 31.7463 25.458 27.5222 25.458C27.5222 17.4257 28.8662 13.8415 29.5062 11.6335C27.4262 11.9535 24.2901 12.9135 22.562 16.5296C20.4179 21.0418 19.9379 27.8261 20.7699 33.2983C21.538 38.3864 24.2261 47.5388 30.5303 49.6509C30.9463 49.7789 31.3303 49.3308 31.1063 48.9468C29.9543 46.9628 27.7462 41.8746 27.4582 31.3782C31.0423 31.4422 40.6747 31.6022 44.0348 31.5702V32.4662V46.0347C44.0348 47.5708 45.2828 48.7868 46.7869 48.7868H49.987C51.523 48.7868 52.7391 47.5388 52.7391 46.0347V18.2257C53.1551 10.4814 45.3148 8.52935 42.6587 13.1055Z" fill="white"/>
</svg>
