<svg width="188" height="49" viewBox="0 0 188 49" fill="none" xmlns="http://www.w3.org/2000/svg">
<g clip-path="url(#clip0_945_7672)">
<path d="M11.0987 35.3997C9.30694 35.3997 7.86363 35.1508 6.76868 34.7028C5.62399 34.2052 4.7779 33.4586 4.18068 32.4134C3.63315 31.3682 3.33453 29.9747 3.33453 28.2328V18.1294H0V13.6998H3.33453V7.62793H8.36136V13.6998H13.4379V18.1294H8.36136V27.5857C8.36136 28.6807 8.56041 29.477 8.95858 30.0742C9.30694 30.6715 10.2028 30.9204 11.5466 30.9204H13.2886V35.3997H11.0987ZM26.3781 35.6485C23.2426 35.6485 20.8536 34.8521 19.1615 33.2595C17.5191 31.6171 16.673 29.1287 16.673 25.8438V13.6999H21.6997V25.4954C21.6997 26.6401 21.849 27.6355 22.1975 28.5314C22.4961 29.3775 22.9938 30.0245 23.6906 30.4724C24.3874 30.9203 25.2832 31.1194 26.3781 31.1194C27.5228 31.1194 28.4187 30.9203 29.1155 30.4226C29.7625 29.9249 30.2602 29.2779 30.509 28.4318C30.8076 27.5857 30.9072 26.5903 30.9072 25.4953V13.6998H35.934V25.8438C35.934 29.2281 35.0879 31.7166 33.3957 33.3093C31.7035 34.9019 29.3644 35.6485 26.3781 35.6485ZM40.7119 35.3997V13.6999H45.3903L45.6889 16.4373C46.2861 15.6907 46.9331 15.0935 47.7294 14.6455C48.476 14.1976 49.2723 13.899 50.1184 13.6501C51.0142 13.451 51.8106 13.3515 52.5073 13.3515C54.5977 13.3515 56.1903 13.7994 57.3848 14.745C58.5793 15.6409 59.4254 16.8354 59.9231 18.3285C60.4208 19.8714 60.6696 21.5138 60.6696 23.4051V35.3997H55.6428V24.2511C55.6428 23.4549 55.593 22.6585 55.4935 21.9119C55.394 21.1654 55.1949 20.4686 54.8465 19.8714C54.5479 19.2742 54.1 18.7765 53.5027 18.428C52.9552 18.0797 52.1589 17.8806 51.2133 17.8806C50.0188 17.8806 49.0234 18.229 48.2271 18.8262C47.3809 19.4732 46.7837 20.3193 46.3358 21.3645C45.9376 22.4097 45.7385 23.6041 45.7385 24.9479V35.3996H40.7118L40.7119 35.3997ZM75.103 35.6485C72.8634 35.6485 70.9721 35.2006 69.3794 34.2549C67.7868 33.3591 66.5923 32.0153 65.796 30.3729C64.9996 28.7304 64.6015 26.7894 64.6015 24.5996C64.6015 22.4097 64.9996 20.4687 65.8457 18.7765C66.6918 17.0842 67.8863 15.7405 69.4789 14.7949C71.0218 13.8493 72.9628 13.3515 75.1527 13.3515C76.7951 13.3515 78.2385 13.6501 79.4827 14.2474C80.727 14.8446 81.7722 15.6409 82.6182 16.6363C83.4146 17.6815 84.0616 18.8262 84.4598 20.1202C84.8579 21.4142 85.057 22.758 85.057 24.2014C85.0072 24.5 85.0072 24.8484 84.9575 25.147C84.9575 25.4456 84.9077 25.794 84.8579 26.1424H69.6283C69.6781 27.1378 69.9269 27.9839 70.3748 28.7802C70.773 29.5766 71.42 30.2236 72.1665 30.6715C72.9629 31.1692 73.9583 31.3683 75.103 31.3683C75.7998 31.3683 76.4468 31.3185 77.0938 31.1194C77.7408 30.9204 78.2883 30.6715 78.786 30.3232C79.234 29.9747 79.5824 29.5268 79.7317 28.9794H84.7584C84.41 30.5222 83.7631 31.8162 82.7676 32.8116C81.822 33.7573 80.6773 34.5038 79.3335 34.9518C77.9896 35.4494 76.5961 35.6485 75.103 35.6485V35.6485ZM69.6781 22.4097H80.1298C80.1298 21.5138 79.9307 20.6677 79.5326 19.9709C79.1344 19.2244 78.5372 18.6271 77.7906 18.1792C77.0441 17.781 76.0984 17.582 75.0533 17.582C73.9086 17.582 72.9131 17.7811 72.1666 18.2787C71.3703 18.7267 70.8228 19.3239 70.3749 20.0705C69.9767 20.817 69.7279 21.6133 69.6781 22.4097V22.4097Z" fill="#373535"/>
<path d="M105.24 13.5647C104.512 13.5647 103.926 13.4555 103.484 13.2372C103.041 13.0188 102.72 12.6791 102.519 12.2182C102.319 11.7572 102.219 11.1749 102.219 10.4714V5.34018H100.654V3.97543H102.219V1.11869H103.766V3.97543H106.331V5.34018H103.766V10.3076C103.766 10.9627 103.884 11.4448 104.121 11.7542C104.357 12.0635 104.839 12.2182 105.567 12.2182H106.277V13.5647H105.24ZM111.153 13.6738C110.717 13.6738 110.295 13.6162 109.889 13.501C109.482 13.3858 109.118 13.2099 108.797 12.9733C108.475 12.7367 108.221 12.4395 108.033 12.0817C107.845 11.7239 107.751 11.3084 107.751 10.8353C107.751 10.2894 107.851 9.82846 108.051 9.45246C108.251 9.07635 108.521 8.77921 108.861 8.56086C109.2 8.34252 109.594 8.18481 110.043 8.08778C110.492 7.99081 110.959 7.94224 111.444 7.94224H114.265C114.265 7.39635 114.189 6.92326 114.037 6.52298C113.886 6.12263 113.64 5.81026 113.3 5.58592C112.961 5.36146 112.512 5.24926 111.954 5.24926C111.614 5.24926 111.299 5.28566 111.008 5.35841C110.717 5.43121 110.468 5.54646 110.262 5.70418C110.055 5.86183 109.904 6.07418 109.807 6.34104H108.151C108.236 5.90435 108.403 5.53129 108.651 5.22198C108.9 4.91266 109.203 4.65786 109.561 4.45775C109.919 4.25758 110.304 4.10898 110.717 4.01195C111.129 3.91498 111.542 3.86641 111.954 3.86641C113.337 3.86641 114.319 4.27275 114.902 5.08549C115.484 5.89823 115.775 6.99606 115.775 8.37898V13.5648H114.483L114.392 12.3457C114.125 12.7097 113.804 12.9886 113.428 13.1828C113.052 13.3768 112.667 13.5072 112.272 13.574C111.878 13.6407 111.505 13.674 111.153 13.674L111.153 13.6738ZM111.299 12.3091C111.905 12.3091 112.43 12.2091 112.873 12.0089C113.315 11.8087 113.658 11.5146 113.901 11.1264C114.143 10.7382 114.265 10.2651 114.265 9.70709V9.234H112.572C112.172 9.234 111.778 9.24006 111.39 9.25223C111.002 9.26435 110.65 9.31292 110.334 9.39778C110.019 9.48269 109.767 9.62829 109.579 9.83446C109.391 10.0407 109.297 10.3379 109.297 10.7261C109.297 11.09 109.391 11.3871 109.579 11.6176C109.767 11.8481 110.016 12.0209 110.325 12.1362C110.635 12.2514 110.959 12.309 111.299 12.309V12.3091ZM118.177 13.5646V3.97537H119.669L119.742 5.46743C119.984 5.09137 120.266 4.78812 120.588 4.55772C120.909 4.3272 121.267 4.15432 121.661 4.03906C122.056 3.92386 122.483 3.86623 122.944 3.86623C123.029 3.86623 123.111 3.86623 123.19 3.86623C123.269 3.86623 123.35 3.86623 123.435 3.86623V5.32189H122.871C122.119 5.32189 121.51 5.4826 121.043 5.80409C120.576 6.12552 120.239 6.55614 120.033 7.09597C119.826 7.6358 119.723 8.23326 119.723 8.88829V13.5646H118.177H118.177ZM128.039 13.6738C127.602 13.6738 127.181 13.6161 126.774 13.5009C126.368 13.3857 126.004 13.2098 125.683 12.9732C125.361 12.7367 125.106 12.4395 124.918 12.0816C124.73 11.7238 124.636 11.3083 124.636 10.8353C124.636 10.2894 124.736 9.8284 124.937 9.45241C125.137 9.07629 125.407 8.77915 125.746 8.56081C126.086 8.34246 126.48 8.18475 126.929 8.08772C127.378 7.99075 127.845 7.94218 128.33 7.94218H131.151C131.151 7.39629 131.075 6.9232 130.923 6.52292C130.771 6.12258 130.526 5.8102 130.186 5.58586C129.847 5.3614 129.398 5.2492 128.84 5.2492C128.5 5.2492 128.185 5.2856 127.894 5.35835C127.602 5.43115 127.354 5.5464 127.147 5.70412C126.941 5.86178 126.79 6.07412 126.693 6.34098H125.037C125.122 5.90429 125.288 5.53123 125.537 5.22192C125.786 4.91261 126.089 4.6578 126.447 4.45769C126.805 4.25752 127.19 4.10892 127.602 4.01189C128.015 3.91492 128.427 3.86635 128.84 3.86635C130.223 3.86635 131.205 4.27269 131.787 5.08543C132.37 5.89818 132.661 6.99601 132.661 8.37892V13.5648H131.369L131.278 12.3456C131.011 12.7096 130.69 12.9886 130.314 13.1827C129.938 13.3768 129.552 13.5072 129.158 13.5739C128.764 13.6406 128.391 13.674 128.039 13.674L128.039 13.6738ZM128.185 12.309C128.791 12.309 129.316 12.209 129.758 12.0088C130.201 11.8087 130.544 11.5145 130.787 11.1263C131.029 10.7381 131.15 10.265 131.15 9.70703V9.23394H129.458C129.058 9.23394 128.664 9.24 128.276 9.25217C127.887 9.26429 127.536 9.31286 127.22 9.39772C126.905 9.48263 126.653 9.62823 126.465 9.8344C126.277 10.0406 126.183 10.3378 126.183 10.726C126.183 11.0899 126.277 11.3871 126.465 11.6175C126.653 11.8481 126.902 12.0209 127.211 12.1361C127.52 12.2513 127.845 12.309 128.185 12.309V12.309ZM142.068 17.0218V12.1271C141.753 12.6851 141.304 13.0824 140.721 13.3189C140.139 13.5555 139.533 13.6738 138.902 13.6738C138.174 13.6738 137.543 13.5495 137.01 13.3007C136.476 13.0521 136.039 12.7094 135.699 12.2727C135.36 11.8359 135.108 11.3204 134.944 10.7261C134.781 10.1317 134.699 9.48875 134.699 8.79732C134.699 7.87537 134.85 7.0414 135.154 6.29529C135.457 5.54935 135.924 4.95789 136.555 4.5212C137.185 4.08457 137.992 3.86617 138.975 3.86617C139.533 3.86617 140.097 3.96926 140.667 4.17549C141.237 4.38171 141.704 4.71531 142.068 5.17629L142.141 3.97531H143.615V17.0217H142.068L142.068 17.0218ZM139.12 12.309C139.739 12.309 140.27 12.1483 140.712 11.8269C141.155 11.5054 141.495 11.0718 141.731 10.5259C141.968 9.98 142.086 9.37955 142.086 8.72446C142.086 8.05726 141.974 7.46292 141.75 6.94126C141.525 6.41966 141.195 6.0072 140.758 5.704C140.321 5.40074 139.769 5.24909 139.102 5.24909C138.411 5.24909 137.856 5.4068 137.437 5.72217C137.019 6.0376 136.715 6.46212 136.527 6.99589C136.339 7.52966 136.245 8.12406 136.245 8.77909C136.245 9.4584 136.342 10.0649 136.536 10.5987C136.731 11.1325 137.04 11.5509 137.464 11.8542C137.889 12.1574 138.441 12.309 139.12 12.309ZM153.058 17.0218V12.1271C152.743 12.6851 152.294 13.0824 151.712 13.3189C151.13 13.5555 150.523 13.6738 149.892 13.6738C149.164 13.6738 148.534 13.5495 148 13.3007C147.466 13.0521 147.029 12.7094 146.69 12.2727C146.35 11.8359 146.098 11.3204 145.935 10.7261C145.771 10.1317 145.689 9.48875 145.689 8.79732C145.689 7.87537 145.841 7.0414 146.144 6.29529C146.447 5.54935 146.914 4.95789 147.545 4.5212C148.176 4.08457 148.982 3.86617 149.965 3.86617C150.523 3.86617 151.087 3.96926 151.657 4.17549C152.227 4.38171 152.694 4.71531 153.058 5.17629L153.131 3.97531H154.605V17.0217H153.058L153.058 17.0218ZM150.111 12.309C150.729 12.309 151.26 12.1483 151.703 11.8269C152.145 11.5054 152.485 11.0718 152.722 10.5259C152.958 9.98 153.076 9.37955 153.076 8.72446C153.076 8.05726 152.964 7.46292 152.74 6.94126C152.515 6.41966 152.185 6.0072 151.748 5.704C151.312 5.40074 150.76 5.24909 150.092 5.24909C149.401 5.24909 148.846 5.4068 148.427 5.72217C148.009 6.0376 147.706 6.46212 147.518 6.99589C147.33 7.52966 147.236 8.12406 147.236 8.77909C147.236 9.4584 147.333 10.0649 147.527 10.5987C147.721 11.1325 148.03 11.5509 148.455 11.8542C148.879 12.1574 149.431 12.309 150.111 12.309ZM157.043 13.5646V3.97531H158.59V13.5646H157.043ZM157.807 2.55606C157.492 2.55606 157.24 2.45903 157.052 2.26491C156.864 2.0708 156.77 1.82217 156.77 1.51891C156.77 1.21566 156.867 0.969969 157.061 0.782028C157.256 0.59397 157.504 0.5 157.807 0.5C158.086 0.5 158.332 0.597028 158.544 0.791084C158.757 0.985258 158.863 1.22783 158.863 1.51891C158.863 1.82217 158.76 2.07086 158.553 2.26491C158.347 2.45903 158.099 2.55606 157.807 2.55606ZM165.25 17.8587C164.51 17.8587 163.797 17.7557 163.111 17.5494C162.426 17.3432 161.81 16.9853 161.265 16.4759L161.938 15.2568C162.411 15.6329 162.917 15.9301 163.457 16.1484C163.997 16.3667 164.564 16.4759 165.158 16.4759C166.153 16.4759 166.866 16.1878 167.297 15.6116C167.727 15.0354 167.942 14.3045 167.942 13.419V12.2727C167.724 12.6002 167.448 12.8701 167.115 13.0824C166.781 13.2947 166.414 13.4524 166.014 13.5555C165.613 13.6585 165.201 13.7101 164.776 13.7101C163.83 13.7101 163.084 13.5221 162.538 13.146C161.992 12.7699 161.604 12.2484 161.374 11.5812C161.143 10.914 161.028 10.1437 161.028 9.27035V3.97531H162.575V8.8336C162.575 9.27035 162.602 9.69792 162.657 10.1164C162.711 10.5349 162.823 10.911 162.993 11.2446C163.163 11.5782 163.412 11.845 163.739 12.0452C164.067 12.2453 164.503 12.3454 165.049 12.3454C165.741 12.3454 166.296 12.1755 166.714 11.8359C167.133 11.4962 167.436 11.0414 167.624 10.4712C167.812 9.90109 167.906 9.27029 167.906 8.57886V3.97525H169.453V13.5645C169.453 14.2559 169.362 14.8686 169.18 15.4023C168.998 15.9361 168.725 16.3849 168.361 16.7489C167.997 17.1127 167.557 17.3887 167.042 17.5768C166.526 17.7648 165.929 17.8587 165.249 17.8587H165.25ZM176.076 13.6737C175.069 13.6737 174.226 13.4644 173.547 13.046C172.868 12.6275 172.361 12.0482 172.027 11.3083C171.694 10.5683 171.527 9.72526 171.527 8.77909C171.527 7.8208 171.697 6.97466 172.037 6.24077C172.376 5.50689 172.886 4.92766 173.565 4.50309C174.244 4.07852 175.094 3.86623 176.112 3.86623C177.119 3.86623 177.959 4.07852 178.633 4.50309C179.306 4.92766 179.809 5.50689 180.143 6.24077C180.476 6.97466 180.643 7.8208 180.643 8.77909C180.643 9.72526 180.473 10.5683 180.134 11.3083C179.794 12.0482 179.288 12.6275 178.614 13.046C177.941 13.4644 177.095 13.6737 176.076 13.6737ZM176.076 12.309C176.78 12.309 177.353 12.1513 177.796 11.8359C178.238 11.5205 178.566 11.096 178.778 10.5622C178.99 10.0285 179.097 9.43406 179.097 8.77903C179.097 8.124 178.99 7.5296 178.778 6.99583C178.566 6.46206 178.238 6.03754 177.796 5.72211C177.353 5.40674 176.78 5.24903 176.076 5.24903C175.385 5.24903 174.818 5.40674 174.375 5.72211C173.932 6.03754 173.605 6.46206 173.392 6.99583C173.18 7.5296 173.074 8.124 173.074 8.77903C173.074 9.43406 173.18 10.0285 173.392 10.5622C173.605 11.096 173.932 11.5205 174.375 11.8359C174.818 12.1513 175.385 12.309 176.076 12.309ZM186.611 13.5645C185.884 13.5645 185.298 13.4553 184.856 13.237C184.413 13.0186 184.091 12.679 183.891 12.218C183.691 11.757 183.591 11.1747 183.591 10.4712V5.34H182.026V3.97525H183.591V1.11851H185.138V3.97525H187.703V5.34H185.138V10.3074C185.138 10.9625 185.256 11.4447 185.492 11.754C185.729 12.0633 186.211 12.218 186.939 12.218H187.649V13.5645H186.611Z" fill="#373535"/>
<path d="M105.24 32.1668C104.512 32.1668 103.926 32.0577 103.484 31.8393C103.041 31.6209 102.72 31.2813 102.519 30.8204C102.319 30.3594 102.219 29.777 102.219 29.0736V23.9423H100.654V22.5776H102.219V19.7209H103.766V22.5776H106.331V23.9423H103.766V28.9098C103.766 29.5648 103.884 30.047 104.121 30.3563C104.357 30.6657 104.839 30.8204 105.567 30.8204H106.277V32.1668H105.24ZM111.153 32.276C110.717 32.276 110.295 32.2183 109.889 32.1031C109.482 31.9879 109.118 31.8121 108.797 31.5754C108.475 31.3388 108.221 31.0417 108.033 30.6839C107.845 30.326 107.751 29.9105 107.751 29.4375C107.751 28.8916 107.851 28.4306 108.051 28.0547C108.251 27.6785 108.521 27.3814 108.861 27.1631C109.2 26.9446 109.594 26.787 110.043 26.69C110.492 26.5929 110.959 26.5444 111.444 26.5444H114.265C114.265 25.9985 114.189 25.5254 114.037 25.1252C113.886 24.7248 113.64 24.4124 113.3 24.188C112.961 23.9636 112.512 23.8515 111.954 23.8515C111.614 23.8515 111.299 23.8879 111.008 23.9606C110.717 24.0334 110.468 24.1487 110.262 24.3063C110.055 24.464 109.904 24.6763 109.807 24.9432H108.151C108.236 24.5065 108.403 24.1335 108.651 23.8241C108.9 23.5148 109.203 23.26 109.561 23.0599C109.919 22.8598 110.304 22.7112 110.717 22.6141C111.129 22.5171 111.542 22.4685 111.954 22.4685C113.337 22.4685 114.319 22.8749 114.902 23.6877C115.484 24.5004 115.775 25.5983 115.775 26.9811V32.1669H114.483L114.392 30.9479C114.125 31.3118 113.804 31.5908 113.428 31.7849C113.052 31.979 112.667 32.1094 112.272 32.1761C111.878 32.2429 111.505 32.2762 111.153 32.2762L111.153 32.276ZM111.299 30.9113C111.905 30.9113 112.43 30.8113 112.873 30.6111C113.315 30.4109 113.658 30.1167 113.901 29.7285C114.143 29.3404 114.265 28.8673 114.265 28.3093V27.8362H112.572C112.172 27.8362 111.778 27.8422 111.39 27.8544C111.002 27.8665 110.65 27.915 110.334 28C110.019 28.0848 109.767 28.2305 109.579 28.4366C109.391 28.6429 109.297 28.9401 109.297 29.3282C109.297 29.6921 109.391 29.9893 109.579 30.2198C109.767 30.4502 110.016 30.6231 110.325 30.7383C110.635 30.8536 110.959 30.9112 111.299 30.9112V30.9113ZM121.67 32.276C121.234 32.276 120.794 32.2335 120.351 32.1487C119.909 32.0637 119.496 31.9181 119.114 31.712C118.732 31.5057 118.413 31.2267 118.159 30.8749C117.904 30.5232 117.74 30.0865 117.667 29.5648H119.232C119.354 29.8924 119.551 30.1562 119.824 30.3563C120.096 30.5565 120.406 30.699 120.751 30.7839C121.097 30.8688 121.428 30.9113 121.743 30.9113C121.937 30.9113 122.162 30.8992 122.416 30.8749C122.671 30.8506 122.917 30.793 123.153 30.702C123.39 30.6111 123.584 30.4745 123.736 30.2926C123.887 30.1106 123.963 29.856 123.963 29.5284C123.963 29.2858 123.908 29.0857 123.799 28.928C123.69 28.7703 123.539 28.6399 123.344 28.5367C123.15 28.4337 122.914 28.3579 122.635 28.3093C122.065 28.188 121.455 28.0727 120.806 27.9636C120.157 27.8544 119.584 27.6481 119.087 27.3449C118.917 27.2357 118.762 27.1114 118.623 26.9719C118.483 26.8323 118.365 26.6747 118.268 26.4988C118.171 26.3228 118.095 26.1288 118.04 25.9166C117.986 25.7042 117.958 25.4708 117.958 25.216C117.958 24.7429 118.052 24.3334 118.24 23.9878C118.428 23.642 118.692 23.357 119.032 23.1325C119.372 22.9081 119.763 22.7413 120.206 22.6321C120.648 22.523 121.124 22.4684 121.634 22.4684C122.265 22.4684 122.832 22.5684 123.335 22.7686C123.839 22.9688 124.254 23.2599 124.582 23.642C124.909 24.0242 125.103 24.4942 125.164 25.0522H123.726C123.642 24.7004 123.411 24.4123 123.035 24.1879C122.659 23.9634 122.18 23.8513 121.598 23.8513C121.403 23.8513 121.185 23.8664 120.942 23.8967C120.7 23.9271 120.469 23.9877 120.251 24.0787C120.033 24.1697 119.851 24.3032 119.705 24.4791C119.56 24.655 119.487 24.8884 119.487 25.1796C119.487 25.4465 119.556 25.6709 119.696 25.8529C119.836 26.0348 120.033 26.1804 120.287 26.2896C120.542 26.3987 120.833 26.4897 121.161 26.5625C121.585 26.6474 122.052 26.7354 122.562 26.8263C123.071 26.9172 123.472 27.0113 123.763 27.1083C124.151 27.2296 124.475 27.3994 124.736 27.6178C124.997 27.8362 125.191 28.097 125.319 28.4002C125.446 28.7035 125.51 29.0553 125.51 29.4556C125.51 30.0257 125.397 30.4928 125.173 30.8566C124.948 31.2205 124.648 31.5056 124.272 31.7118C123.896 31.9181 123.481 32.0636 123.026 32.1485C122.571 32.2334 122.119 32.2759 121.67 32.2759L121.67 32.276ZM131.624 32.276C130.617 32.276 129.774 32.0667 129.094 31.6483C128.415 31.2298 127.909 30.6505 127.575 29.9105C127.241 29.1707 127.075 28.3275 127.075 27.3814C127.075 26.423 127.244 25.5769 127.584 24.8431C127.924 24.1091 128.433 23.5299 129.113 23.1053C129.792 22.6808 130.641 22.4685 131.66 22.4685C132.667 22.4685 133.507 22.6808 134.18 23.1053C134.853 23.5299 135.357 24.1091 135.69 24.8431C136.024 25.5769 136.191 26.423 136.191 27.3814C136.191 28.3275 136.021 29.1707 135.681 29.9105C135.342 30.6505 134.835 31.2298 134.162 31.6483C133.489 32.0667 132.642 32.276 131.624 32.276ZM131.624 30.9113C132.327 30.9113 132.9 30.7536 133.343 30.4382C133.786 30.1228 134.113 29.6982 134.326 29.1645C134.538 28.6307 134.644 28.0364 134.644 27.3813C134.644 26.7262 134.538 26.1318 134.326 25.5981C134.113 25.0643 133.786 24.6398 133.343 24.3244C132.9 24.009 132.327 23.8513 131.624 23.8513C130.932 23.8513 130.365 24.009 129.922 24.3244C129.48 24.6398 129.152 25.0643 128.94 25.5981C128.727 26.1318 128.621 26.7262 128.621 27.3813C128.621 28.0364 128.727 28.6307 128.94 29.1645C129.152 29.6982 129.48 30.1228 129.922 30.4382C130.365 30.7536 130.932 30.9113 131.624 30.9113ZM142.104 32.276C141.146 32.276 140.358 32.0607 139.739 31.6301C139.12 31.1994 138.659 30.6171 138.356 29.8833C138.053 29.1494 137.901 28.3215 137.901 27.3995C137.901 26.4776 138.053 25.6436 138.356 24.8975C138.659 24.1515 139.126 23.5601 139.757 23.1234C140.388 22.6868 141.195 22.4684 142.177 22.4684C142.553 22.4684 142.932 22.5139 143.314 22.6048C143.697 22.6958 144.057 22.8354 144.397 23.0234C144.737 23.2114 145.028 23.463 145.271 23.7784V19.3023H146.817V32.1667H145.343L145.27 30.7293C145.052 31.0932 144.776 31.3874 144.443 31.6118C144.109 31.8362 143.742 32.003 143.342 32.1122C142.941 32.2213 142.529 32.276 142.104 32.276V32.276ZM142.323 30.9113C142.966 30.9113 143.506 30.7475 143.942 30.42C144.379 30.0925 144.712 29.6558 144.943 29.1099C145.173 28.564 145.289 27.9696 145.289 27.3267C145.289 26.6595 145.177 26.0651 144.952 25.5435C144.728 25.0218 144.397 24.6094 143.96 24.3062C143.524 24.0029 142.972 23.8513 142.305 23.8513C141.613 23.8513 141.058 24.009 140.64 24.3244C140.221 24.6398 139.918 25.0674 139.73 25.6072C139.542 26.147 139.448 26.7505 139.448 27.4177C139.448 27.9029 139.499 28.3548 139.603 28.7733C139.706 29.1918 139.869 29.5618 140.094 29.8833C140.318 30.2047 140.612 30.4564 140.976 30.6384C141.34 30.8204 141.789 30.9113 142.323 30.9113H142.323ZM149.255 32.1668V22.5776H150.802V32.1668H149.255ZM150.02 21.1582C149.704 21.1582 149.453 21.0613 149.265 20.8672C149.076 20.673 148.982 20.4244 148.982 20.1212C148.982 19.8179 149.079 19.5722 149.274 19.3842C149.468 19.1962 149.716 19.1022 150.02 19.1022C150.299 19.1022 150.544 19.1992 150.757 19.3933C150.969 19.5874 151.075 19.83 151.075 20.1212C151.075 20.4244 150.972 20.6731 150.766 20.8672C150.559 21.0613 150.311 21.1582 150.02 21.1582ZM154.168 32.1668V23.9422H152.603V22.5776H154.168V21.5586C154.168 20.8428 154.268 20.2575 154.468 19.8027C154.669 19.3478 154.99 19.0112 155.433 18.7928C155.876 18.5744 156.461 18.4653 157.189 18.4653H158.28V19.83H157.353C156.916 19.83 156.579 19.9028 156.343 20.0483C156.106 20.1939 155.942 20.4092 155.851 20.6943C155.76 20.9794 155.715 21.3281 155.715 21.7406V22.5776H158.28V23.9423H155.715V32.1668H154.168V32.1668Z" fill="#373535"/>
<path d="M105.495 48.5C104.476 48.5 103.633 48.2908 102.966 47.8723C102.299 47.4538 101.801 46.8745 101.474 46.1346C101.146 45.3947 100.982 44.5515 100.982 43.6054C100.982 42.6471 101.155 41.8009 101.501 41.067C101.847 40.3332 102.353 39.7539 103.02 39.3294C103.688 38.9048 104.506 38.6925 105.477 38.6925C106.229 38.6925 106.875 38.835 107.415 39.1201C107.955 39.4052 108.4 39.7843 108.752 40.2574C109.104 40.7304 109.359 41.249 109.516 41.8131C109.674 42.3772 109.741 42.9442 109.717 43.5144C109.704 43.6235 109.695 43.7327 109.689 43.8419C109.683 43.9511 109.674 44.0603 109.662 44.1694H102.547C102.596 44.7274 102.735 45.2308 102.966 45.6797C103.196 46.1285 103.524 46.4833 103.948 46.7441C104.373 47.0049 104.901 47.1354 105.531 47.1354C105.847 47.1354 106.165 47.0959 106.487 47.0171C106.808 46.9382 107.099 46.8018 107.36 46.6077C107.621 46.4136 107.806 46.1528 107.915 45.8253H109.498C109.353 46.444 109.08 46.9504 108.679 47.3447C108.279 47.7389 107.8 48.0301 107.242 48.2181C106.684 48.4061 106.102 48.5002 105.495 48.5002L105.495 48.5ZM102.584 42.8229H108.133C108.121 42.277 108 41.7978 107.77 41.3854C107.539 40.973 107.227 40.6515 106.832 40.4211C106.438 40.1906 105.968 40.0754 105.422 40.0754C104.828 40.0754 104.327 40.2027 103.921 40.4575C103.515 40.7122 103.202 41.0458 102.984 41.4582C102.766 41.8707 102.632 42.3256 102.584 42.823V42.8229ZM111.773 48.3908V38.8016H113.265L113.337 39.948C113.544 39.6568 113.777 39.4203 114.038 39.2383C114.299 39.0563 114.59 38.9199 114.911 38.8289C115.233 38.738 115.576 38.6924 115.94 38.6924C116.607 38.6924 117.147 38.835 117.559 39.1201C117.971 39.4051 118.281 39.7782 118.487 40.2391C118.705 39.9116 118.957 39.6326 119.242 39.4021C119.527 39.1715 119.849 38.9957 120.206 38.8744C120.564 38.7531 120.962 38.6924 121.398 38.6924C122.102 38.6924 122.669 38.844 123.1 39.1473C123.53 39.4506 123.843 39.86 124.037 40.3755C124.231 40.891 124.328 41.4703 124.328 42.1132V48.3907H122.781V42.8956C122.781 42.5802 122.766 42.2587 122.736 41.9312C122.705 41.6037 122.63 41.2974 122.508 41.0124C122.387 40.7273 122.208 40.4968 121.971 40.3209C121.735 40.145 121.404 40.0571 120.98 40.0571C120.579 40.0571 120.243 40.151 119.97 40.3391C119.697 40.5272 119.475 40.7788 119.306 41.0942C119.136 41.4096 119.015 41.7462 118.942 42.1041C118.869 42.462 118.833 42.8168 118.833 43.1685V48.3907H117.286V42.8774C117.286 42.5742 117.271 42.2587 117.24 41.9312C117.21 41.6037 117.143 41.2974 117.04 41.0124C116.937 40.7273 116.767 40.4968 116.531 40.3209C116.294 40.145 115.97 40.0571 115.557 40.0571C114.975 40.0571 114.52 40.2238 114.193 40.5574C113.865 40.891 113.638 41.2974 113.51 41.7765C113.383 42.2557 113.319 42.7258 113.319 43.1867V48.3907H111.773L111.773 48.3908ZM129.75 48.5C129.313 48.5 128.892 48.4424 128.486 48.3272C128.079 48.212 127.715 48.036 127.394 47.7994C127.072 47.5629 126.818 47.2657 126.63 46.9079C126.442 46.55 126.348 46.1346 126.348 45.6615C126.348 45.1156 126.448 44.6546 126.648 44.2786C126.848 43.9026 127.118 43.6054 127.457 43.3871C127.797 43.1687 128.191 43.011 128.64 42.914C129.089 42.817 129.556 42.7684 130.041 42.7684H132.862C132.862 42.2225 132.786 41.7494 132.634 41.3491C132.483 40.9488 132.237 40.6364 131.897 40.4121C131.558 40.1876 131.109 40.0755 130.551 40.0755C130.211 40.0755 129.896 40.1118 129.605 40.1846C129.314 40.2574 129.065 40.3726 128.859 40.5303C128.652 40.688 128.501 40.9003 128.404 41.1672H126.748C126.833 40.7305 127 40.3575 127.248 40.0481C127.497 39.7388 127.8 39.484 128.158 39.2839C128.516 39.0838 128.901 38.9352 129.314 38.8382C129.726 38.7411 130.138 38.6926 130.551 38.6926C131.934 38.6926 132.916 39.099 133.499 39.9117C134.081 40.7244 134.372 41.8223 134.372 43.2051V48.391H133.08L132.989 47.1719C132.722 47.5358 132.401 47.8148 132.025 48.0089C131.649 48.203 131.264 48.3334 130.869 48.4001C130.475 48.4669 130.102 48.5002 129.75 48.5002L129.75 48.5ZM129.896 47.1353C130.502 47.1353 131.027 47.0353 131.47 46.835C131.912 46.6349 132.255 46.3407 132.498 45.9526C132.74 45.5644 132.862 45.0913 132.862 44.5333V44.0602H131.169C130.769 44.0602 130.375 44.0663 129.987 44.0784C129.598 44.0906 129.247 44.1391 128.931 44.2239C128.616 44.3088 128.364 44.4545 128.176 44.6607C127.988 44.8669 127.894 45.164 127.894 45.5522C127.894 45.9162 127.988 46.2134 128.176 46.4438C128.364 46.6743 128.613 46.8472 128.922 46.9624C129.232 47.0776 129.556 47.1352 129.896 47.1352V47.1353ZM140.267 48.5C139.831 48.5 139.391 48.4575 138.948 48.3727C138.505 48.2878 138.093 48.1422 137.711 47.936C137.329 47.7298 137.01 47.4507 136.756 47.099C136.501 46.7472 136.337 46.3104 136.264 45.7888H137.829C137.95 46.1164 138.147 46.3802 138.42 46.5804C138.693 46.7805 139.003 46.9231 139.348 47.0079C139.694 47.0928 140.025 47.1353 140.34 47.1353C140.534 47.1353 140.759 47.1232 141.013 47.0989C141.268 47.0746 141.514 47.017 141.75 46.926C141.987 46.835 142.181 46.6986 142.333 46.5166C142.484 46.3347 142.56 46.08 142.56 45.7524C142.56 45.5098 142.505 45.3097 142.396 45.152C142.287 44.9943 142.135 44.8639 141.941 44.7608C141.747 44.6577 141.511 44.5818 141.232 44.5333C140.662 44.412 140.052 44.2967 139.403 44.1875C138.754 44.0784 138.181 43.8722 137.683 43.5689C137.514 43.4598 137.359 43.3354 137.219 43.1959C137.08 43.0564 136.962 42.8987 136.865 42.7228C136.768 42.5469 136.692 42.3528 136.637 42.1406C136.583 41.9282 136.555 41.6948 136.555 41.44C136.555 40.9669 136.649 40.5574 136.837 40.2118C137.025 39.8661 137.289 39.581 137.629 39.3565C137.969 39.1321 138.36 38.9653 138.803 38.8562C139.245 38.747 139.721 38.6924 140.231 38.6924C140.862 38.6924 141.429 38.7925 141.932 38.9926C142.436 39.1928 142.851 39.4839 143.179 39.8661C143.506 40.2482 143.7 40.7183 143.761 41.2762H142.323C142.238 40.9244 142.008 40.6363 141.632 40.4119C141.256 40.1874 140.777 40.0753 140.194 40.0753C140 40.0753 139.782 40.0904 139.539 40.1208C139.297 40.1511 139.066 40.2117 138.848 40.3028C138.63 40.3937 138.448 40.5272 138.302 40.7031C138.156 40.879 138.084 41.1124 138.084 41.4036C138.084 41.6705 138.153 41.8949 138.293 42.0769C138.432 42.2588 138.63 42.4044 138.884 42.5136C139.139 42.6227 139.43 42.7138 139.758 42.7865C140.182 42.8714 140.649 42.9594 141.159 43.0503C141.668 43.1413 142.068 43.2353 142.36 43.3323C142.748 43.4536 143.072 43.6235 143.333 43.8418C143.594 44.0602 143.788 44.321 143.915 44.6243C144.043 44.9275 144.106 45.2793 144.106 45.6796C144.106 46.2497 143.994 46.7168 143.77 47.0806C143.545 47.4446 143.245 47.7296 142.869 47.9359C142.493 48.1421 142.078 48.2876 141.623 48.3726C141.168 48.4574 140.716 48.4999 140.267 48.4999L140.267 48.5Z" fill="#373535"/>
<path d="M95.9515 4.80411H95.1186C94.5284 4.80411 94.1292 4.91384 93.9214 5.13318C93.8147 5.24585 93.7285 5.38475 93.6633 5.54958H93.6617C93.5934 5.72188 93.5487 5.92658 93.5279 6.16315C93.5029 6.44706 93.4847 6.73785 93.4736 7.03547C93.4626 7.32802 93.4571 7.66944 93.4571 8.05902V18.0056C93.4571 18.7991 93.3985 19.5386 93.2816 20.2239C93.1641 20.9117 92.9864 21.5446 92.7486 22.1221C92.5017 22.7219 92.1409 23.2549 91.6664 23.7205C91.3686 24.0128 91.0266 24.2781 90.6405 24.5164C90.8264 24.628 91.0011 24.7469 91.1644 24.8728C91.531 25.1554 91.8423 25.4733 92.0981 25.8262C92.5974 26.5148 92.9501 27.2969 93.156 28.1721C93.2558 28.5965 93.331 29.046 93.3814 29.5201C93.4318 29.9953 93.4571 30.4868 93.4571 30.9942V40.9409C93.4571 41.314 93.4626 41.6454 93.4736 41.9343C93.4847 42.2289 93.5029 42.5224 93.5279 42.8142C93.5487 43.058 93.5939 43.2692 93.6633 43.4476C93.7277 43.6134 93.8139 43.7532 93.9214 43.8668C94.1292 44.0861 94.5284 44.1958 95.1186 44.1958H95.9515V45.0254H95.1186C94.2925 45.0254 93.6936 44.8292 93.322 44.4371C93.14 44.2449 92.9966 44.0144 92.8922 43.7457C92.7925 43.4896 92.7289 43.2017 92.7016 42.8823C92.6784 42.6109 92.6602 42.3046 92.6473 41.9635C92.6341 41.6168 92.6275 41.276 92.6275 40.9409V30.9942C92.6275 30.5038 92.6044 30.0415 92.5584 29.6076C92.5122 29.1725 92.4424 28.7565 92.3491 28.3602C92.1688 27.5938 91.8615 26.911 91.4273 26.3123C91.2165 26.0214 90.9602 25.7597 90.659 25.5274C90.3498 25.289 89.994 25.0804 89.592 24.9017L88.7695 24.5361L89.5823 24.1499C90.184 23.8641 90.6855 23.5243 91.0865 23.1308C91.4812 22.7434 91.7805 22.3023 91.984 21.8079C92.1967 21.2911 92.3572 20.7166 92.4651 20.0846C92.5733 19.4503 92.6275 18.7572 92.6275 18.0056V8.05902C92.6275 7.70819 92.6341 7.35736 92.6473 7.00636C92.6602 6.66011 92.6784 6.35521 92.7016 6.092C92.729 5.78174 92.7929 5.49942 92.8935 5.24556L92.8922 5.24503C92.9958 4.98341 93.1391 4.75589 93.322 4.56289C93.6936 4.17072 94.2925 3.97461 95.1186 3.97461H95.9515V4.80417V4.80411Z" fill="#34C925"/>
</g>
<defs>
<clipPath id="clip0_945_7672">
<rect width="187.704" height="48" fill="white" transform="translate(0 0.5)"/>
</clipPath>
</defs>
</svg>
