<svg width="64" height="64" viewBox="0 0 64 64" fill="none" xmlns="http://www.w3.org/2000/svg">
<path d="M30.5495 44.464C30.6686 44.5658 30.7977 44.6675 30.9243 44.7668C28.4087 46.4367 25.4558 47.326 22.4365 47.3231C20.4239 47.3247 18.4308 46.9296 16.571 46.1603C14.7113 45.391 13.0214 44.2627 11.5981 42.8398C10.1747 41.417 9.04587 39.7275 8.27599 37.868C7.50612 36.0085 7.11035 34.0154 7.11133 32.0029C7.11107 29.231 7.86259 26.5109 9.28588 24.1324C10.7092 21.7538 12.7509 19.8058 15.1937 18.4958C17.6365 17.1858 20.3888 16.5628 23.1576 16.6932C25.9264 16.8237 28.608 17.7026 30.9168 19.2365C30.7927 19.3432 30.6686 19.44 30.5743 19.5492C28.7854 21.0939 27.35 23.0057 26.3659 25.1547C25.3818 27.3036 24.872 29.6393 24.8711 32.0029C24.8711 36.7804 26.9385 41.3221 30.5495 44.464ZM41.3727 16.6802C38.356 16.6743 35.4054 17.564 32.8948 19.2365C33.0164 19.3432 33.1405 19.44 33.2348 19.5492C36.8632 22.6837 38.9405 27.2279 38.9405 32.0029C38.9405 36.7779 36.8682 41.3171 33.2621 44.464C33.1405 44.5658 33.0115 44.6675 32.8874 44.7668C35.4008 46.4372 38.3523 47.3266 41.3702 47.3231C43.3986 47.3491 45.4121 46.972 47.2936 46.2137C49.1752 45.4555 50.8875 44.3312 52.3312 42.906C53.7748 41.4808 54.9211 39.7832 55.7035 37.9115C56.486 36.0399 56.8889 34.0315 56.8891 32.0029C56.8893 29.9743 56.4866 27.9658 55.7045 26.0941C54.9224 24.2223 53.7764 22.5244 52.3329 21.099C50.8895 19.6736 49.1774 18.549 47.2959 17.7905C45.4145 17.0319 43.4011 16.6545 41.3727 16.6802ZM31.9046 19.9661C30.08 21.3968 28.6052 23.2242 27.5921 25.3098C26.5789 27.3953 26.0541 29.6843 26.0574 32.0029C26.0526 34.3228 26.5767 36.6133 27.5899 38.7003C28.6031 40.7873 30.0787 42.6159 31.9046 44.0471C33.7299 42.6153 35.2053 40.7866 36.2188 38.6998C37.2324 36.613 37.7574 34.3228 37.7542 32.0029C37.7576 29.684 37.2325 27.3948 36.219 25.3092C35.2054 23.2236 33.7299 21.3963 31.9046 19.9661Z" fill="white"/>
</svg>
