<svg width="113" height="24" viewBox="0 0 113 24" fill="none" xmlns="http://www.w3.org/2000/svg">
<path fill-rule="evenodd" clip-rule="evenodd" d="M7.72913 19.6682L0.339844 14.3828V24.0006H7.73197L7.72913 19.6682Z" fill="white"/>
<path fill-rule="evenodd" clip-rule="evenodd" d="M0.339844 9.74328L9.83677 16.6531L24.2971 7.4051V0L9.83677 9.24774L0.339844 2.33796V9.74328Z" fill="white"/>
<path fill-rule="evenodd" clip-rule="evenodd" d="M16.9062 16.7605V23.9996H24.2984V12.0332L16.9062 16.7605Z" fill="white"/>
<path d="M42.8568 17.9157L42.823 11.6449L39.7861 16.7495H38.3013L35.2809 11.814V17.9157H32.1934V6.08398H34.9437L39.0943 12.9126L43.1437 6.08398H45.894L45.9278 17.9157H42.8571H42.8568ZM52.8454 13.6225L51.5967 14.9578V17.9157H48.2898V6.08398H51.5967V11.0026L56.1691 6.08398H59.8472L55.0218 11.3239L60.1004 17.9159H56.2198L52.8454 13.6227V13.6225ZM70.0553 11.7464C70.7303 11.983 71.2588 12.3521 71.6412 12.8536C72.0237 13.355 72.2149 13.9606 72.2149 14.6706C72.2149 15.7072 71.7986 16.5074 70.9662 17.0707C70.1339 17.634 68.9304 17.9159 67.3557 17.9159H60.9779V6.0842H67.0182C68.5255 6.0842 69.6729 6.36303 70.4602 6.92089C71.2476 7.47876 71.6412 8.23081 71.6412 9.1775C71.6412 9.74083 71.5035 10.2451 71.228 10.6901C70.9523 11.1354 70.5615 11.4875 70.0553 11.7466V11.7464ZM64.2849 8.50111V10.7831H66.5796C67.7045 10.7831 68.2668 10.3999 68.2668 9.63368C68.2668 8.87878 67.7045 8.50111 66.5796 8.50111H64.2849ZM67.0858 15.4988C68.2557 15.4988 68.8405 15.0988 68.8405 14.2987C68.8405 13.4987 68.2555 13.0985 67.0858 13.0985H64.2849V15.4988H67.0858ZM81.8662 15.6171H76.8718L75.9438 17.9159H72.5356L77.7491 6.0842H81.0393L86.2698 17.9159H82.7941L81.8662 15.6171ZM80.8875 13.1493L79.3691 9.36316L77.8506 13.1493H80.8875ZM98.4518 6.08398V17.9157H95.7015L90.4879 11.611V17.9157H87.2148V6.08398H89.9651L95.1787 12.3887V6.08398H98.452H98.4518ZM105.369 13.6225L104.121 14.9578V17.9157H100.814V6.08398H104.121V11.0026L108.693 6.08398H112.371L107.546 11.3239L112.624 17.9159H108.744L105.369 13.6227V13.6225Z" fill="white"/>
</svg>
