<svg width="80" height="24" viewBox="0 0 80 24" fill="none" xmlns="http://www.w3.org/2000/svg">
<path fill-rule="evenodd" clip-rule="evenodd" d="M43.1983 18.6025C42.3051 18.6025 41.5805 17.8727 41.5805 16.9731V12.017V6.00849C41.5636 2.69873 38.901 0 35.598 0H33.66V5.41443H34.7723C35.6654 5.41443 36.3901 6.14427 36.3901 7.04385V12V17.9915C36.3901 21.3182 39.0695 24 42.3557 24H44.2937V18.5856H43.1983V18.6025ZM53.8488 18.6025C52.9557 18.6025 52.231 17.8727 52.231 16.9731V12.017V6.00849C52.231 2.68175 49.5516 0 46.2654 0H44.3274V5.41443H45.4397C46.3328 5.41443 47.0575 6.14427 47.0575 7.04385V12V17.9915C47.0575 21.3182 49.7369 24 53.0231 24H54.9611V18.5856H53.8488V18.6025ZM54.9611 14.9873C54.9611 10.0481 58.9382 6.04243 63.8421 6.04243C68.7461 6.04243 72.7232 10.0481 72.7232 14.9873C72.7232 19.9264 68.7461 23.9321 63.8421 23.9321C58.9382 23.9321 54.9611 19.9264 54.9611 14.9873ZM59.6628 14.9873C59.6628 17.3126 61.5334 19.1966 63.8421 19.1966C66.1509 19.1966 68.0214 17.3126 68.0214 14.9873C68.0214 12.6619 66.1509 10.7779 63.8421 10.7779C61.5334 10.7779 59.6628 12.6619 59.6628 14.9873ZM79.0764 21.4031C79.0764 22.8119 77.9304 23.9661 76.5317 23.9661C75.133 23.9661 73.987 22.8119 73.987 21.4031C73.987 19.9943 75.133 18.8402 76.5317 18.8402C77.9473 18.8402 79.0764 19.9774 79.0764 21.4031ZM74.2903 1.30693V0H78.9415V1.30693V17.703H74.2903V1.30693ZM0.882812 20.9448L3.14099 17.2447C5.11268 18.5686 7.2866 19.2306 9.07291 19.2306C10.1177 19.2306 10.9772 18.9081 10.9772 18.2291C10.9772 17.5739 9.737 17.2506 8.0142 16.8016L7.82586 16.7525C4.42174 15.8359 1.70856 14.7157 1.70856 11.1513C1.70856 7.45121 4.64082 5.39746 8.63476 5.39746C11.1626 5.39746 13.7746 6.14428 15.7463 7.41726L13.6735 11.2702C11.8872 10.2857 9.94922 9.67469 8.56735 9.67469C7.64049 9.67469 7.16863 10.0311 7.16863 10.5743C7.16863 11.2532 8.1629 11.5757 9.98292 12.1188C13.4039 13.1202 16.1171 14.2744 16.1171 17.703C16.1171 21.5219 13.2691 23.5248 9.07291 23.5248C6.14066 23.5248 3.2758 22.6931 0.882812 20.9448ZM25.7396 6.02547C30.6435 6.02547 34.6206 10.0311 34.6206 14.9703V15.0552V16.1754H21.9479C22.3692 17.8218 23.8859 18.976 25.9755 18.976C27.3068 18.976 28.0652 18.6195 28.773 18.1443L33.8623 19.6209C32.5647 21.9632 29.9863 23.9151 25.9081 23.9151C20.8525 23.9151 16.8586 20.0113 16.8586 14.9703C16.8586 10.0311 20.8356 6.02547 25.7396 6.02547ZM29.5482 13.7992C29.0595 12.1528 27.5428 10.9647 25.7396 10.9647C23.9533 10.9647 22.4366 12.1528 21.931 13.7992H29.5482Z" fill="white"/>
</svg>
