<svg width="32" height="32" viewBox="0 0 32 32" fill="none" xmlns="http://www.w3.org/2000/svg">
<path d="M16.0013 29.3337C8.6375 29.3337 2.66797 23.3641 2.66797 16.0003C2.66797 8.63653 8.6375 2.66699 16.0013 2.66699C23.3651 2.66699 29.3347 8.63653 29.3347 16.0003C29.3347 23.3641 23.3651 29.3337 16.0013 29.3337ZM11.8548 17.5614L11.8717 17.5507C12.6447 20.1026 13.0312 21.3786 13.0312 21.3786C13.1808 21.7926 13.3867 21.8665 13.6364 21.8327C13.886 21.7989 14.0185 21.6638 14.1815 21.5066C14.1815 21.5066 14.7099 20.9966 15.7667 19.9767L19.1679 22.4934C19.7876 22.8358 20.2351 22.6591 20.3889 21.9173L22.5993 11.4889C22.8433 10.5182 22.4153 10.1289 21.6627 10.437L8.68529 15.4498C7.79994 15.8057 7.80422 16.301 8.5241 16.5218L11.8548 17.5614Z" fill="black"/>
</svg>
