<svg width="71" height="24" viewBox="0 0 71 24" fill="none" xmlns="http://www.w3.org/2000/svg">
<g clip-path="url(#clip0_1315_562)">
<path d="M10.4738 2.04068L8.52008 4.02708H6.5228H4.52552V6.00259V7.97265L2.53913 9.95905C1.44525 11.0529 0.552734 11.9672 0.552734 11.9999C0.552734 12.0325 1.44525 12.9468 2.53913 14.0407L4.52552 16.0271V17.9971V19.9727H6.51736H8.51464L10.4902 21.9699L12.4602 23.9727L14.4684 21.9754L16.4711 19.9727H18.4466H20.4167V17.9971V16.0271L22.4303 14.0135L24.4439 11.9999L22.4303 9.98626L20.4167 7.97265V5.99714V4.02708H18.4412H16.4711L14.4847 2.04068C13.3908 0.946804 12.482 0.054287 12.4602 0.054287C12.4439 0.054287 11.5459 0.946804 10.4738 2.04068ZM14.648 2.85701L16.7976 5.00667H18.1419H19.4915V6.35089V7.70055L21.6412 9.85021L23.7908 11.9999L21.6412 14.1495L19.4915 16.2992V17.6434V18.9931H18.1473H16.7976L14.6371 21.1536L12.4711 23.3196L10.3106 21.1536L8.14457 18.9931H6.82757H5.50512V17.6706V16.3536L3.35546 14.2039C2.1745 13.023 1.2058 12.0325 1.2058 11.9999C1.2058 11.9672 2.1745 10.9767 3.35546 9.79578L5.50512 7.64612V6.32912V5.00667H6.84933H8.18811L10.3106 2.85701C11.4752 1.67606 12.4439 0.707348 12.4602 0.707348C12.482 0.707348 13.467 1.67606 14.648 2.85701Z" fill="white"/>
<path d="M7.55742 7.06401C4.87442 9.747 2.67578 11.9729 2.67578 12.0001C2.67578 12.0327 3.31252 12.6912 4.08531 13.464L5.49483 14.8735L5.8649 14.4817C6.85537 13.4259 8.18871 12.5606 9.55469 12.0871C10.3057 11.8205 11.2635 11.6518 12.2921 11.5919C13.7343 11.5157 14.4853 11.2164 15.2799 10.411C15.9547 9.71979 16.3356 8.84905 16.3792 7.8749C16.4173 6.9987 16.2431 6.30211 15.8078 5.60551C15.6499 5.35517 12.5588 2.17694 12.4717 2.17694C12.4554 2.17694 10.2459 4.37558 7.55742 7.06401Z" fill="white"/>
<path d="M19.1695 9.45282C18.511 10.1984 17.4824 10.9712 16.5082 11.4555C15.3164 12.0487 14.2116 12.3263 12.6987 12.4079C11.681 12.4623 11.398 12.5276 10.7613 12.8324C9.42252 13.4746 8.58443 14.8134 8.58987 16.3263C8.58987 17.0283 8.68239 17.431 9.0198 18.1222C9.27014 18.6338 9.29191 18.6555 10.8701 20.2447L12.4701 21.8501L17.3953 16.9249L22.3205 11.9998L20.8892 10.5685L19.4525 9.13173L19.1695 9.45282Z" fill="white"/>
<path d="M22.8105 4.84358V5.44222H24.4976H26.1847V8.6259V11.8096H27.1643H28.1439L28.1548 8.60957L28.1711 5.41501L29.8473 5.39869L31.518 5.3878V4.81637V4.24494H27.1643H22.8105V4.84358Z" fill="white"/>
<path d="M32.498 8.02726V11.8096H36.2804H40.0627V11.2109V10.6123H37.26H34.4572V9.60549V8.59869H37.1783H39.8994V7.97284V7.34699H37.1783H34.4572V6.3946V5.44222L37.2491 5.43134L40.0355 5.41501L40.0518 4.82726L40.0681 4.24494H36.2804H32.498V8.02726Z" fill="white"/>
<path d="M41.0977 8.02726V11.8096H42.0772H43.0568V8.99052L43.0623 6.17692L45.865 8.99052L48.6677 11.8096H49.6419H50.6215V8.02726V4.24494H49.6419H48.6623V7.02045C48.6623 8.54426 48.646 9.79596 48.6187 9.79596C48.597 9.79596 47.3289 8.54426 45.8051 7.02045L43.0296 4.24494H42.0664H41.0977V8.02726Z" fill="white"/>
<path d="M52.3887 4.33189C52.1275 4.42985 51.8445 4.68563 51.703 4.96318C51.6051 5.15366 51.5996 5.31692 51.5996 7.99991C51.5996 11.0911 51.5942 11.0584 51.9153 11.3904C51.9969 11.4775 52.1602 11.6026 52.2799 11.6625C52.4976 11.7822 52.503 11.7822 56.6064 11.7822C60.7098 11.7822 60.7153 11.7822 60.933 11.6625C61.2105 11.5156 61.4227 11.2924 61.5261 11.0366C61.5969 10.8734 61.6132 10.5795 61.6132 9.44209V8.05434H58.9193H56.2255V8.65297V9.25161H57.9398H59.654V9.90468V10.5577H56.6064H53.5588V8.02712V5.49651H56.6064H59.654V6.12236V6.74821H60.6336H61.6132V5.96998C61.6132 5.33869 61.5915 5.1591 61.5098 4.97406C61.3847 4.7074 61.0309 4.39175 60.7479 4.31012C60.5955 4.26114 59.4364 4.24481 56.5738 4.25025C53.2432 4.25025 52.5738 4.26658 52.3887 4.33189Z" fill="white"/>
<path d="M62.5938 8.02726V11.8096H66.3761H70.1584V11.2109V10.6123H67.3557H64.5529V9.60549V8.59869H67.274H69.9951V7.97284V7.34699H67.274H64.5529V6.3946V5.44222H67.3557H70.1584V4.84358V4.24494H66.3761H62.5938V8.02726Z" fill="white"/>
<path d="M26.5117 16.5711V20.3589L30.5825 20.3426L34.6478 20.3262L34.958 20.1739C35.3444 19.9834 35.66 19.6786 35.8559 19.3085C35.992 19.0473 36.0083 18.9657 36.0083 18.4759C36.0083 17.9861 35.992 17.9045 35.8559 17.6432C35.5729 17.1099 35.1376 16.7725 34.5553 16.6419L34.2668 16.5766L34.4954 16.5385C35.0777 16.4351 35.6002 16.0378 35.8559 15.5208C36.0627 15.0963 36.0954 14.465 35.9267 14.0296C35.7634 13.5943 35.3716 13.1752 34.9362 12.9739L34.5934 12.816L30.5553 12.7997L26.5117 12.7834V16.5711ZM33.494 14.0623C33.592 14.1004 33.7498 14.2201 33.8423 14.329C34.3158 14.8677 34.1308 15.6351 33.4668 15.9181C33.2927 15.9888 32.9063 15.9997 30.8655 15.9997H28.4709V14.9929V13.9861H30.8927C32.8083 13.9861 33.3525 14.0024 33.494 14.0623ZM33.5866 17.3167C34.2396 17.6977 34.2614 18.6119 33.6301 19.031L33.4015 19.1834L30.9362 19.1997L28.4709 19.216V18.2147C28.4709 17.665 28.4872 17.197 28.509 17.1752C28.5308 17.1534 29.6246 17.148 30.9471 17.1534L33.3417 17.1698L33.5866 17.3167Z" fill="white"/>
<path d="M38.7947 16.5712L36.9062 20.3535H37.8858H38.8654L39.1648 19.7549L39.4641 19.1562H41.6682H43.8722L44.1716 19.7549L44.4709 20.3535H45.4505H46.4301L44.5416 16.5712L42.6477 12.7889H41.6682H40.6886L38.7947 16.5712ZM42.4845 16.3807C42.9199 17.246 43.2736 17.9698 43.2736 17.9862C43.2736 18.0025 42.5498 18.0134 41.6682 18.0134C40.7865 18.0134 40.0627 18.0025 40.0627 17.9862C40.0627 17.9317 41.6409 14.8025 41.6682 14.8025C41.6845 14.8025 42.0491 15.51 42.4845 16.3807Z" fill="white"/>
<path d="M47.2461 16.5712V20.3535H48.2257H49.2053V17.578C49.2053 16.0488 49.2216 14.8025 49.2488 14.8025C49.2706 14.8025 50.5386 16.0488 52.0624 17.578L54.8379 20.3535H55.8012H56.7699V16.5712V12.7889H55.7903H54.8107V15.5807V18.378L52.0243 15.5807L49.2379 12.7889H48.242H47.2461V16.5712Z" fill="white"/>
<path d="M57.6406 16.5712V20.3535H58.6202H59.5998V18.7753C59.5998 17.9045 59.6107 17.1971 59.627 17.1971C59.6433 17.1971 60.6338 17.91 61.8257 18.7753L63.9971 20.3535L65.042 20.3426L66.0869 20.3263L63.578 18.4814C62.1957 17.4692 61.0583 16.6202 61.042 16.6039C61.0311 16.5821 62.1631 15.7222 63.5617 14.6882L66.1032 12.8161L65.0583 12.7998L64.0134 12.7889L61.8202 14.3889L59.627 15.9943L59.6107 14.3889L59.5998 12.7889H58.6202H57.6406V16.5712Z" fill="white"/>
</g>
<defs>
<clipPath id="clip0_1315_562">
<rect width="69.6599" height="24" fill="white" transform="translate(0.498047)"/>
</clipPath>
</defs>
</svg>
