<svg width="71" height="24" viewBox="0 0 71 24" fill="none" xmlns="http://www.w3.org/2000/svg">
<g clip-path="url(#clip0_1315_748)">
<path d="M10.8156 2.0408L8.86188 4.0272H6.8646H4.86732V6.00271V7.97278L2.88093 9.95917C1.78705 11.053 0.894531 11.9673 0.894531 12C0.894531 12.0326 1.78705 12.9469 2.88093 14.0408L4.86732 16.0272V17.9973V19.9728H6.85916H8.85644L10.8319 21.9701L12.802 23.9728L14.8102 21.9755L16.8129 19.9728H18.7884H20.7585V17.9973V16.0272L22.7721 14.0136L24.7857 12L22.7721 9.98638L20.7585 7.97278V5.99727V4.0272H18.783H16.8129L14.8265 2.0408C13.7326 0.946926 12.8238 0.054409 12.802 0.054409C12.7857 0.054409 11.8877 0.946926 10.8156 2.0408ZM14.9898 2.85713L17.1394 5.00679H18.4837H19.8333V6.35101V7.70067L21.983 9.85033L24.1326 12L21.983 14.1496L19.8333 16.2993V17.6435V18.9932H18.4891H17.1394L14.9789 21.1537L12.8129 23.3197L10.6524 21.1537L8.48637 18.9932H7.16936H5.84691V17.6707V16.3537L3.69725 14.2041C2.5163 13.0231 1.54759 12.0326 1.54759 12C1.54759 11.9673 2.5163 10.9769 3.69725 9.79591L5.84691 7.64625V6.32924V5.00679H7.19113H8.52991L10.6524 2.85713C11.817 1.67618 12.7857 0.70747 12.802 0.70747C12.8238 0.70747 13.8088 1.67618 14.9898 2.85713Z" fill="black"/>
<path d="M7.89726 7.06392C5.21427 9.74691 3.01562 11.9728 3.01562 12C3.01562 12.0326 3.65236 12.6911 4.42515 13.4639L5.83467 14.8734L6.20474 14.4816C7.19522 13.4258 8.52855 12.5605 9.89454 12.087C10.6456 11.8204 11.6034 11.6517 12.632 11.5918C14.0741 11.5156 14.8252 11.2163 15.6197 10.4109C16.2945 9.7197 16.6755 8.84895 16.719 7.8748C16.7571 6.99861 16.583 6.30202 16.1476 5.60542C15.9898 5.35508 12.8986 2.17684 12.8115 2.17684C12.7952 2.17684 10.5857 4.37548 7.89726 7.06392Z" fill="black"/>
<path d="M19.5132 9.45306C18.8547 10.1986 17.8261 10.9714 16.852 11.4558C15.6602 12.049 14.5554 12.3265 13.0425 12.4082C12.0248 12.4626 11.7418 12.5279 11.105 12.8327C9.76627 13.4748 8.92818 14.8136 8.93362 16.3265C8.93362 17.0286 9.02614 17.4313 9.36355 18.1225C9.61389 18.634 9.63566 18.6558 11.2139 20.2449L12.8139 21.8503L17.7391 16.9252L22.6642 12L21.2329 10.5687L19.7962 9.13197L19.5132 9.45306Z" fill="black"/>
<path d="M23.1523 4.84352V5.44216H24.8394H26.5265V8.62584V11.8095H27.5061H28.4857L28.4966 8.60951L28.5129 5.41495L30.1891 5.39862L31.8598 5.38774V4.81631V4.24488H27.5061H23.1523V4.84352Z" fill="black"/>
<path d="M32.8398 8.0272V11.8095H36.6222H40.4045V11.2109V10.6122H37.6018H34.799V9.60543V8.59862H37.5201H40.2412V7.97277V7.34692H37.5201H34.799V6.39454V5.44216L37.5909 5.43128L40.3773 5.41495L40.3936 4.8272L40.4099 4.24488H36.6222H32.8398V8.0272Z" fill="black"/>
<path d="M41.4375 8.0272V11.8095H42.4171H43.3967V8.99046L43.4021 6.17686L46.2048 8.99046L49.0076 11.8095H49.9817H50.9613V8.0272V4.24488H49.9817H49.0021V7.02039C49.0021 8.5442 48.9858 9.7959 48.9586 9.7959C48.9368 9.7959 47.6688 8.5442 46.145 7.02039L43.3695 4.24488H42.4062H41.4375V8.0272Z" fill="black"/>
<path d="M52.7305 4.33195C52.4693 4.42991 52.1863 4.68569 52.0448 4.96324C51.9469 5.15372 51.9414 5.31698 51.9414 7.99997C51.9414 11.0911 51.936 11.0585 52.2571 11.3905C52.3387 11.4775 52.502 11.6027 52.6217 11.6626C52.8394 11.7823 52.8448 11.7823 56.9482 11.7823C61.0516 11.7823 61.0571 11.7823 61.2747 11.6626C61.5523 11.5156 61.7645 11.2925 61.8679 11.0367C61.9387 10.8734 61.955 10.5796 61.955 9.44215V8.0544H59.2611H56.5673V8.65304V9.25168H58.2815H59.9958V9.90474V10.5578H56.9482H53.9006V8.02719V5.49657H56.9482H59.9958V6.12242V6.74827H60.9754H61.955V5.97004C61.955 5.33875 61.9333 5.15916 61.8516 4.97412C61.7264 4.70746 61.3727 4.39181 61.0897 4.31018C60.9373 4.2612 59.7781 4.24487 56.9156 4.25031C53.585 4.25031 52.9156 4.26664 52.7305 4.33195Z" fill="black"/>
<path d="M62.9336 8.0272V11.8095H66.7159H70.4982V11.2109V10.6122H67.6955H64.8928V9.60543V8.59862H67.6139H70.335V7.97277V7.34692H67.6139H64.8928V6.39454V5.44216H67.6955H70.4982V4.84352V4.24488H66.7159H62.9336V8.0272Z" fill="black"/>
<path d="M26.8555 16.5714V20.3592L30.9262 20.3428L34.9915 20.3265L35.3017 20.1741C35.6881 19.9837 36.0038 19.6789 36.1997 19.3088C36.3357 19.0476 36.3521 18.966 36.3521 18.4762C36.3521 17.9864 36.3357 17.9047 36.1997 17.6435C35.9167 17.1102 35.4813 16.7728 34.899 16.6422L34.6106 16.5768L34.8391 16.5388C35.4215 16.4354 35.9439 16.0381 36.1997 15.5211C36.4065 15.0966 36.4391 14.4653 36.2704 14.0299C36.1072 13.5945 35.7153 13.1755 35.28 12.9741L34.9371 12.8163L30.899 12.8L26.8555 12.7837V16.5714ZM33.8378 14.0626C33.9357 14.1007 34.0936 14.2204 34.1861 14.3292C34.6596 14.868 34.4745 15.6354 33.8106 15.9183C33.6364 15.9891 33.25 16 31.2092 16H28.8147V14.9932V13.9864H31.2364C33.1521 13.9864 33.6963 14.0027 33.8378 14.0626ZM33.9303 17.317C34.5834 17.6979 34.6051 18.6122 33.9738 19.0313L33.7453 19.1837L31.28 19.2L28.8147 19.2163V18.2149C28.8147 17.6653 28.831 17.1973 28.8527 17.1755C28.8745 17.1537 29.9684 17.1483 31.2908 17.1537L33.6854 17.17L33.9303 17.317Z" fill="black"/>
<path d="M39.1384 16.5714L37.25 20.3537H38.2296H39.2092L39.5085 19.7551L39.8078 19.1565H42.0119H44.216L44.5153 19.7551L44.8146 20.3537H45.7942H46.7738L44.8854 16.5714L42.9915 12.7891H42.0119H41.0323L39.1384 16.5714ZM42.8282 16.3809C43.2636 17.2462 43.6173 17.9701 43.6173 17.9864C43.6173 18.0027 42.8935 18.0136 42.0119 18.0136C41.1303 18.0136 40.4065 18.0027 40.4065 17.9864C40.4065 17.932 41.9847 14.8027 42.0119 14.8027C42.0282 14.8027 42.3929 15.5102 42.8282 16.3809Z" fill="black"/>
<path d="M47.5898 16.5714V20.3537H48.5694H49.549V17.5782C49.549 16.049 49.5654 14.8027 49.5926 14.8027C49.6143 14.8027 50.8824 16.049 52.4062 17.5782L55.1817 20.3537H56.1449H57.1137V16.5714V12.7891H56.1341H55.1545V15.5809V18.3782L52.3681 15.5809L49.5817 12.7891H48.5858H47.5898V16.5714Z" fill="black"/>
<path d="M57.9844 16.5714V20.3537H58.964H59.9436V18.7755C59.9436 17.9047 59.9544 17.1973 59.9708 17.1973C59.9871 17.1973 60.9776 17.9102 62.1694 18.7755L64.3408 20.3537L65.3857 20.3428L66.4306 20.3265L63.9218 18.4816C62.5395 17.4694 61.4021 16.6204 61.3857 16.6041C61.3749 16.5823 62.5068 15.7224 63.9055 14.6884L66.447 12.8163L65.4021 12.8L64.3572 12.7891L62.164 14.3891L59.9708 15.9945L59.9544 14.3891L59.9436 12.7891H58.964H57.9844V16.5714Z" fill="black"/>
</g>
<defs>
<clipPath id="clip0_1315_748">
<rect width="69.6599" height="24" fill="white" transform="translate(0.839844)"/>
</clipPath>
</defs>
</svg>
