<svg width="64" height="64" viewBox="0 0 64 64" fill="none" xmlns="http://www.w3.org/2000/svg">
<path fill-rule="evenodd" clip-rule="evenodd" d="M49.4838 27.7615H37.7949V11.6477C37.7949 11.1095 38.2359 10.667 38.7722 10.667H40.5227C40.5267 13.3073 41.5726 15.8396 43.4349 17.7093C45.3022 19.5778 47.8258 20.6276 50.4611 20.6276V27.7615H49.4838V27.7615ZM50.4611 33.4496C50.4611 40.1699 48.9313 45.178 45.8702 48.4419C42.8102 51.7058 38.0841 53.3337 31.711 53.3337C25.7542 53.3337 21.2363 51.7058 18.1557 48.4419C15.0754 45.178 13.5371 40.2583 13.5371 33.678V11.6033C13.5371 11.0888 13.9533 10.6671 14.4701 10.6671H25.269C25.7818 10.6711 26.2032 11.0888 26.2032 11.6033V34.1607C26.2032 36.8454 26.6997 38.9156 27.7046 40.3706C29.2632 42.4409 32.0513 43.1325 34.3864 42.0302C35.1389 41.6732 35.8005 41.1505 36.3214 40.5033C37.3068 39.1327 37.7948 37.1189 37.7948 34.4498V30.2301H50.461V33.4496H50.4611Z" fill="white"/>
<path fill-rule="evenodd" clip-rule="evenodd" d="M43.0137 10.667H49.4829C50.0234 10.667 50.4602 11.1095 50.4602 11.6477V18.1477C46.3503 18.1477 43.0137 14.8033 43.0137 10.6752V10.667L43.0137 10.667Z" fill="white"/>
</svg>
