<svg width="62" height="24" viewBox="0 0 62 24" fill="none" xmlns="http://www.w3.org/2000/svg">
<g clip-path="url(#clip0_955_2925)">
<path fill-rule="evenodd" clip-rule="evenodd" d="M12.5872 24C19.2345 24 24.6221 18.631 24.6221 12.0069C24.6221 5.3705 19.2345 0.0015077 12.5872 0.000732506C5.93992 -4.2688e-05 0.550781 5.36973 0.550781 12.0062C0.550781 18.6294 5.94535 24 12.5872 24ZM12.5872 4.11159C13.0562 4.11159 13.5174 4.13019 13.9686 4.17127V10.5736H11.2105V4.1705C11.6601 4.12942 12.1229 4.11081 12.5857 4.11081L12.5872 4.11159ZM17.267 7.12941C18.3086 7.31594 19.3359 7.57497 20.3415 7.90461V12.5372C20.3415 16.7907 16.8694 20.2659 12.5895 20.2659C8.30969 20.2659 4.84302 16.7907 4.84302 12.5372V7.90151C5.84872 7.5725 6.87598 7.31349 7.91744 7.12631V12.5023C7.91744 16.3728 9.56938 18.4062 12.5895 18.4062C15.6213 18.4062 17.2678 16.3728 17.2678 12.5023L17.267 7.12941ZM56.9042 6.04414C57.3073 5.38135 58.1151 4.94337 59.1933 4.94337C61.012 4.94337 61.8902 6.09763 61.8941 7.52476V10.9527H60.1941V7.7612C60.1941 7.08058 59.8065 6.47903 58.9895 6.47903C58.1724 6.47903 57.7647 7.05732 57.7647 7.73639V10.9496H56.0685V7.73639C56.0685 7.05732 55.6399 6.47903 54.8151 6.47903C53.9903 6.47903 53.6344 7.08135 53.6344 7.7612V10.9496H51.936V7.52011C51.936 6.09453 52.8662 4.94027 54.6817 4.94027C55.6089 4.94027 56.4926 5.37825 56.9027 6.04104L56.9042 6.04414ZM43.198 6.48988V5.05344H37.6872V6.48678H40.9507L37.5546 9.51856V10.9511H43.4027V9.51856H39.8058L43.198 6.48988ZM48.943 8.14414C48.943 9.0829 48.4127 9.51546 47.6298 9.51546C46.8469 9.51546 46.3298 9.0829 46.3298 8.14414V5.05344H44.629V8.20073C44.629 10.2534 46.3391 11.0589 47.6337 11.0589C48.9112 11.0589 50.6383 10.2534 50.6383 8.20073V5.05344H48.9399V8.14104L48.943 8.14414ZM34.7422 8.14414C34.7422 9.0829 34.212 9.51546 33.429 9.51546C32.6461 9.51546 32.129 9.0829 32.129 8.14414V5.05344H30.4283V8.20073C30.4283 10.2534 32.1383 11.0589 33.4329 11.0589C34.7104 11.0589 36.4376 10.2534 36.4376 8.20073V5.05344H34.7414V8.14104L34.7422 8.14414ZM33.3019 19.8728C33.6097 19.9893 33.9373 20.0443 34.2662 20.0348C34.6367 20.0352 35.0043 19.9693 35.3515 19.8403C35.6881 19.7144 35.9952 19.5208 36.2538 19.2713C36.5199 19.0109 36.729 18.6981 36.8678 18.3527C37.1716 17.5497 37.1716 16.6634 36.8678 15.8604C36.729 15.515 36.5199 15.2022 36.2538 14.9418C35.9957 14.6929 35.6894 14.4993 35.3538 14.3728C34.7001 14.1343 33.9875 14.1099 33.319 14.3031C33.0934 14.3737 32.8774 14.4716 32.6755 14.5945C32.4911 14.7038 32.3252 14.8417 32.1841 15.0031H32.1143V11.8465H30.4314V20.0224H32.1143V19.0038H32.1918C32.3132 19.2029 32.471 19.3772 32.6569 19.5178C32.8549 19.6631 33.0712 19.7815 33.3004 19.8697L33.3019 19.8728ZM34.9383 18.131C34.6541 18.4028 34.2544 18.5392 33.7391 18.5403C33.2239 18.5413 32.8246 18.4049 32.5414 18.131C32.4013 17.9993 32.2906 17.8394 32.2167 17.6618C32.1428 17.4842 32.1074 17.293 32.1128 17.1007C32.1057 16.9054 32.142 16.7109 32.2189 16.5312C32.2958 16.3515 32.4115 16.191 32.5577 16.0612C32.8538 15.7961 33.2471 15.6635 33.7376 15.6635C34.2544 15.6635 34.6541 15.8 34.9368 16.0728C35.0722 16.2076 35.1796 16.3678 35.2529 16.5442C35.3262 16.7206 35.3639 16.9097 35.3639 17.1007C35.3639 17.2918 35.3262 17.4809 35.2529 17.6573C35.1796 17.8337 35.0722 17.9939 34.9368 18.1286L34.9383 18.131ZM46.3655 14.1837H48.0499V15.2317H48.1437C48.249 15.0283 48.3965 14.8496 48.5763 14.7077C48.7707 14.5567 48.9855 14.4341 49.2143 14.3434C49.4841 14.2294 49.8282 14.172 50.2499 14.172C50.5761 14.1681 50.9008 14.2146 51.2127 14.31C51.504 14.4011 51.7715 14.5557 51.9957 14.7627C52.2265 14.9826 52.4046 15.2519 52.5166 15.5503C52.6489 15.9097 52.7123 16.2908 52.7034 16.6736V20.0248H51.0205V17.1457C51.0205 16.6441 50.8833 16.2713 50.612 16.0279C50.3406 15.7845 49.9794 15.6627 49.5352 15.6627C49.0438 15.6627 48.6735 15.8015 48.4244 16.079C48.1753 16.3565 48.0505 16.7121 48.0499 17.1457V20.0193H46.3639L46.3655 14.1837ZM55.791 11.8449H54.1065V20.0209H55.791V17.1596L58.4112 20.0209H60.4003L57.6871 17.0186L60.1895 14.1806H58.2112L55.791 16.9131V11.8449ZM44.7189 17.9899V14.031H42.9771L42.9903 14.9938C42.6112 14.4286 41.9445 13.9131 40.7624 13.9131C38.729 13.9131 37.6841 15.4922 37.6841 17.0759C37.6469 18.679 38.829 20.2759 40.6755 20.2759C41.6531 20.2759 42.5484 19.841 42.9771 19.0767C43.1507 19.5806 43.5864 20.1333 44.4949 20.1333H45.5027V18.6511H45.222C44.8686 18.6511 44.7189 18.524 44.7189 17.9899ZM41.1298 18.7472C40.129 18.7472 39.3825 18.0581 39.3825 17.0883C39.3825 16.1317 40.129 15.4534 41.1298 15.4534C42.1624 15.4534 42.9127 16.1317 42.9127 17.0883C42.9127 18.0449 42.1624 18.7472 41.1298 18.7472Z" fill="black"/>
</g>
<defs>
<clipPath id="clip0_955_2925">
<rect width="61.3418" height="24" fill="white" transform="translate(0.548828)"/>
</clipPath>
</defs>
</svg>
